Mozilla Headline-Condensed Bold.ufo
<glyph name="dollar" format="1">
  <advance width="433"/>
  <unicode hex="0024"/>
  <outline>
    <contour>
      <point x="216" y="-4" type="curve" smooth="yes"/>
      <point x="343" y="-4"/>
      <point x="405" y="52"/>
      <point x="405" y="178" type="curve" smooth="yes"/>
      <point x="405" y="284"/>
      <point x="370" y="335"/>
      <point x="286" y="378" type="curve" smooth="yes"/>
      <point x="202" y="418" type="line" smooth="yes"/>
      <point x="165" y="436"/>
      <point x="150" y="458"/>
      <point x="150" y="492" type="curve" smooth="yes"/>
      <point x="150" y="532" type="line" smooth="yes"/>
      <point x="150" y="571"/>
      <point x="172" y="590"/>
      <point x="217" y="590" type="curve" smooth="yes"/>
      <point x="265" y="590"/>
      <point x="286" y="566"/>
      <point x="286" y="517" type="curve" smooth="yes"/>
      <point x="286" y="448" type="line"/>
      <point x="407" y="448" type="line"/>
      <point x="402" y="630"/>
      <point x="350" y="694"/>
      <point x="217" y="694" type="curve" smooth="yes"/>
      <point x="91" y="694"/>
      <point x="30" y="638"/>
      <point x="30" y="512" type="curve" smooth="yes"/>
      <point x="30" y="406"/>
      <point x="62" y="354"/>
      <point x="146" y="312" type="curve" smooth="yes"/>
      <point x="230" y="272" type="line" smooth="yes"/>
      <point x="268" y="253"/>
      <point x="284" y="231"/>
      <point x="284" y="198" type="curve" smooth="yes"/>
      <point x="284" y="158" type="line" smooth="yes"/>
      <point x="284" y="119"/>
      <point x="261" y="100"/>
      <point x="216" y="100" type="curve" smooth="yes"/>
      <point x="167" y="100"/>
      <point x="146" y="123"/>
      <point x="146" y="173" type="curve" smooth="yes"/>
      <point x="146" y="242" type="line"/>
      <point x="25" y="242" type="line"/>
      <point x="30" y="60"/>
      <point x="83" y="-4"/>
    </contour>
    <contour>
      <point x="172" y="-92" type="line"/>
      <point x="260" y="-92" type="line"/>
      <point x="260" y="24" type="line"/>
      <point x="172" y="24" type="line"/>
    </contour>
    <contour>
      <point x="173" y="659" type="line"/>
      <point x="261" y="659" type="line"/>
      <point x="261" y="782" type="line"/>
      <point x="173" y="782" type="line"/>
    </contour>
  </outline>
</glyph>
<glyph name="quotesingle" format="1">
  <advance width="165"/>
  <unicode hex="0027"/>
  <outline>
    <contour>
      <point x="55" y="472" type="line"/>
      <point x="109" y="472" type="line"/>
      <point x="141" y="629" type="line"/>
      <point x="141" y="690" type="line"/>
      <point x="23" y="690" type="line"/>
      <point x="23" y="629" type="line"/>
    </contour>
  </outline>
</glyph>
<glyph name="parenright" format="1">
  <advance width="233"/>
  <unicode hex="0029"/>
  <outline>
    <contour>
      <point x="102" y="782" type="curve"/>
      <point x="2" y="782" type="line"/>
      <point x="68" y="654"/>
      <point x="93" y="549"/>
      <point x="93" y="408" type="curve" smooth="yes"/>
      <point x="93" y="282" type="line" smooth="yes"/>
      <point x="93" y="141"/>
      <point x="68" y="36"/>
      <point x="2" y="-92" type="curve"/>
      <point x="102" y="-92" type="line"/>
      <point x="172" y="11"/>
      <point x="205" y="154"/>
      <point x="205" y="345" type="curve" smooth="yes"/>
      <point x="205" y="536"/>
      <point x="172" y="679"/>
    </contour>
  </outline>
</glyph>
<glyph name="asterisk" format="1">
  <advance width="369"/>
  <unicode hex="002A"/>
  <outline>
    <contour>
      <point x="18" y="534" type="line"/>
      <point x="79" y="514" type="line"/>
      <point x="156" y="525" type="line"/>
      <point x="158" y="518" type="line"/>
      <point x="89" y="484" type="line"/>
      <point x="51" y="432" type="line"/>
      <point x="131" y="374" type="line"/>
      <point x="168" y="426" type="line"/>
      <point x="180" y="502" type="line"/>
      <point x="188" y="502" type="line"/>
      <point x="200" y="426" type="line"/>
      <point x="237" y="374" type="line"/>
      <point x="317" y="432" type="line"/>
      <point x="279" y="484" type="line"/>
      <point x="208" y="518" type="line"/>
      <point x="210" y="525" type="line"/>
      <point x="289" y="514" type="line"/>
      <point x="350" y="534" type="line"/>
      <point x="320" y="627" type="line"/>
      <point x="259" y="607" type="line"/>
      <point x="203" y="549" type="line"/>
      <point x="197" y="553" type="line"/>
      <point x="233" y="626" type="line"/>
      <point x="233" y="690" type="line"/>
      <point x="135" y="690" type="line"/>
      <point x="135" y="626" type="line"/>
      <point x="171" y="553" type="line"/>
      <point x="165" y="549" type="line"/>
      <point x="109" y="608" type="line"/>
      <point x="48" y="627" type="line"/>
    </contour>
  </outline>
</glyph>
<glyph name="hyphen" format="1">
  <advance width="253"/>
  <unicode hex="002D"/>
  <outline>
    <contour>
      <point x="41" y="237" type="line"/>
      <point x="212" y="237" type="line"/>
      <point x="212" y="331" type="line"/>
      <point x="41" y="331" type="line"/>
    </contour>
  </outline>
</glyph>
<glyph name="slash" format="1">
  <advance width="263"/>
  <unicode hex="002F"/>
  <outline>
    <contour>
      <point x="16" y="-92" type="line"/>
      <point x="126" y="-92" type="line"/>
      <point x="247" y="782" type="line"/>
      <point x="137" y="782" type="line"/>
    </contour>
  </outline>
</glyph>
<glyph name="zero" format="1">
  <advance width="468"/>
  <unicode hex="0030"/>
  <outline>
    <contour>
      <point x="234" y="-10" type="curve" smooth="yes"/>
      <point x="379" y="-10"/>
      <point x="433" y="77"/>
      <point x="433" y="345" type="curve" smooth="yes"/>
      <point x="433" y="613"/>
      <point x="379" y="700"/>
      <point x="234" y="700" type="curve" smooth="yes"/>
      <point x="89" y="700"/>
      <point x="35" y="613"/>
      <point x="35" y="345" type="curve" smooth="yes"/>
      <point x="35" y="77"/>
      <point x="89" y="-10"/>
    </contour>
    <contour>
      <point x="234" y="92" type="curve" smooth="yes"/>
      <point x="182" y="92"/>
      <point x="160" y="120"/>
      <point x="160" y="187" type="curve" smooth="yes"/>
      <point x="160" y="503" type="line" smooth="yes"/>
      <point x="160" y="570"/>
      <point x="182" y="598"/>
      <point x="234" y="598" type="curve" smooth="yes"/>
      <point x="286" y="598"/>
      <point x="308" y="570"/>
      <point x="308" y="503" type="curve" smooth="yes"/>
      <point x="308" y="187" type="line" smooth="yes"/>
      <point x="308" y="120"/>
      <point x="286" y="92"/>
    </contour>
    <contour>
      <point x="119" y="76" type="line"/>
      <point x="184" y="75" type="line"/>
      <point x="350" y="614" type="line"/>
      <point x="284" y="615" type="line"/>
    </contour>
  </outline>
</glyph>
<glyph name="five" format="1">
  <advance width="448"/>
  <unicode hex="0035"/>
  <outline>
    <contour>
      <point x="226" y="-10" type="curve" smooth="yes"/>
      <point x="353" y="-10"/>
      <point x="415" y="65"/>
      <point x="415" y="227" type="curve" smooth="yes"/>
      <point x="415" y="378"/>
      <point x="366" y="454"/>
      <point x="273" y="454" type="curve" smooth="yes"/>
      <point x="217" y="454"/>
      <point x="183" y="429"/>
      <point x="175" y="365" type="curve"/>
      <point x="151" y="365" type="line"/>
      <point x="158" y="428"/>
      <point x="161" y="462"/>
      <point x="161" y="491" type="curve" smooth="yes"/>
      <point x="161" y="588" type="line"/>
      <point x="298" y="588" type="line"/>
      <point x="298" y="483" type="line"/>
      <point x="401" y="483" type="line"/>
      <point x="401" y="690" type="line"/>
      <point x="44" y="690" type="line"/>
      <point x="44" y="312" type="line"/>
      <point x="162" y="312" type="line"/>
      <point x="170" y="341"/>
      <point x="191" y="359"/>
      <point x="226" y="359" type="curve" smooth="yes"/>
      <point x="269" y="359"/>
      <point x="290" y="336"/>
      <point x="290" y="287" type="curve" smooth="yes"/>
      <point x="290" y="167" type="line" smooth="yes"/>
      <point x="290" y="118"/>
      <point x="269" y="96"/>
      <point x="226" y="96" type="curve" smooth="yes"/>
      <point x="181" y="96"/>
      <point x="160" y="119"/>
      <point x="160" y="169" type="curve" smooth="yes"/>
      <point x="160" y="242" type="line"/>
      <point x="38" y="242" type="line"/>
      <point x="43" y="58"/>
      <point x="94" y="-10"/>
    </contour>
  </outline>
</glyph>
<glyph name="six" format="1">
  <advance width="450"/>
  <unicode hex="0036"/>
  <outline>
    <contour>
      <point x="229" y="-10" type="curve" smooth="yes"/>
      <point x="356" y="-10"/>
      <point x="418" y="65"/>
      <point x="418" y="226" type="curve" smooth="yes"/>
      <point x="418" y="377"/>
      <point x="368" y="454"/>
      <point x="276" y="454" type="curve" smooth="yes"/>
      <point x="220" y="454"/>
      <point x="186" y="428"/>
      <point x="177" y="363" type="curve"/>
      <point x="153" y="363" type="line"/>
      <point x="160" y="422"/>
      <point x="163" y="453"/>
      <point x="163" y="481" type="curve" smooth="yes"/>
      <point x="163" y="521" type="line" smooth="yes"/>
      <point x="163" y="570"/>
      <point x="184" y="594"/>
      <point x="228" y="594" type="curve" smooth="yes"/>
      <point x="271" y="594"/>
      <point x="291" y="570"/>
      <point x="291" y="532" type="curve" smooth="yes"/>
      <point x="291" y="495" type="line"/>
      <point x="412" y="495" type="line"/>
      <point x="400" y="643"/>
      <point x="347" y="700"/>
      <point x="228" y="700" type="curve" smooth="yes"/>
      <point x="84" y="700"/>
      <point x="34" y="616"/>
      <point x="34" y="345" type="curve" smooth="yes"/>
      <point x="34" y="73"/>
      <point x="84" y="-10"/>
    </contour>
    <contour>
      <point x="228" y="93" type="curve" smooth="yes"/>
      <point x="185" y="93"/>
      <point x="163" y="116"/>
      <point x="163" y="165" type="curve" smooth="yes"/>
      <point x="163" y="287" type="line" smooth="yes"/>
      <point x="163" y="336"/>
      <point x="185" y="359"/>
      <point x="228" y="359" type="curve" smooth="yes"/>
      <point x="272" y="359"/>
      <point x="293" y="336"/>
      <point x="293" y="287" type="curve" smooth="yes"/>
      <point x="293" y="165" type="line" smooth="yes"/>
      <point x="293" y="116"/>
      <point x="272" y="93"/>
    </contour>
  </outline>
</glyph>
<glyph name="nine" format="1">
  <advance width="450"/>
  <unicode hex="0039"/>
  <outline>
    <contour>
      <point x="221" y="700" type="curve" smooth="yes"/>
      <point x="94" y="700"/>
      <point x="32" y="625"/>
      <point x="32" y="464" type="curve" smooth="yes"/>
      <point x="32" y="313"/>
      <point x="82" y="236"/>
      <point x="174" y="236" type="curve" smooth="yes"/>
      <point x="230" y="236"/>
      <point x="264" y="262"/>
      <point x="273" y="327" type="curve"/>
      <point x="297" y="327" type="line"/>
      <point x="290" y="268"/>
      <point x="287" y="237"/>
      <point x="287" y="209" type="curve" smooth="yes"/>
      <point x="287" y="169" type="line" smooth="yes"/>
      <point x="287" y="120"/>
      <point x="266" y="96"/>
      <point x="222" y="96" type="curve" smooth="yes"/>
      <point x="179" y="96"/>
      <point x="160" y="120"/>
      <point x="160" y="158" type="curve" smooth="yes"/>
      <point x="160" y="195" type="line"/>
      <point x="38" y="195" type="line"/>
      <point x="50" y="47"/>
      <point x="103" y="-10"/>
      <point x="222" y="-10" type="curve" smooth="yes"/>
      <point x="366" y="-10"/>
      <point x="416" y="74"/>
      <point x="416" y="345" type="curve" smooth="yes"/>
      <point x="416" y="617"/>
      <point x="366" y="700"/>
    </contour>
    <contour>
      <point x="222" y="597" type="curve" smooth="yes"/>
      <point x="266" y="597"/>
      <point x="287" y="574"/>
      <point x="287" y="525" type="curve" smooth="yes"/>
      <point x="287" y="403" type="line" smooth="yes"/>
      <point x="287" y="354"/>
      <point x="266" y="331"/>
      <point x="222" y="331" type="curve" smooth="yes"/>
      <point x="178" y="331"/>
      <point x="157" y="354"/>
      <point x="157" y="403" type="curve" smooth="yes"/>
      <point x="157" y="525" type="line" smooth="yes"/>
      <point x="157" y="574"/>
      <point x="178" y="597"/>
    </contour>
  </outline>
</glyph>
<glyph name="greater" format="1">
  <advance width="384"/>
  <unicode hex="003E"/>
  <outline>
    <contour>
      <point x="25" y="152" type="line"/>
      <point x="364" y="275" type="line"/>
      <point x="364" y="399" type="line"/>
      <point x="25" y="522" type="line"/>
      <point x="25" y="422" type="line"/>
      <point x="260" y="349" type="line"/>
      <point x="260" y="325" type="line"/>
      <point x="25" y="252" type="line"/>
    </contour>
  </outline>
</glyph>
<glyph name="question" format="1">
  <advance width="394"/>
  <unicode hex="003F"/>
  <outline>
    <contour>
      <point x="143" y="253" type="curve" smooth="yes"/>
      <point x="148" y="170" type="line"/>
      <point x="223" y="170" type="line"/>
      <point x="226" y="237" type="line" smooth="yes"/>
      <point x="228" y="265"/>
      <point x="238" y="281"/>
      <point x="265" y="301" type="curve" smooth="yes"/>
      <point x="347" y="355"/>
      <point x="376" y="399"/>
      <point x="376" y="495" type="curve" smooth="yes"/>
      <point x="376" y="521" type="line" smooth="yes"/>
      <point x="376" y="642"/>
      <point x="312" y="700"/>
      <point x="194" y="700" type="curve" smooth="yes"/>
      <point x="68" y="700"/>
      <point x="15" y="633"/>
      <point x="10" y="453" type="curve"/>
      <point x="131" y="453" type="line"/>
      <point x="131" y="525" type="line" smooth="yes"/>
      <point x="131" y="572"/>
      <point x="153" y="594"/>
      <point x="195" y="594" type="curve" smooth="yes"/>
      <point x="233" y="594"/>
      <point x="256" y="576"/>
      <point x="256" y="534" type="curve" smooth="yes"/>
      <point x="256" y="475" type="line" smooth="yes"/>
      <point x="256" y="441"/>
      <point x="243" y="420"/>
      <point x="209" y="398" type="curve" smooth="yes"/>
      <point x="152" y="357"/>
      <point x="137" y="325"/>
    </contour>
    <contour>
      <point x="122" y="0" type="line"/>
      <point x="248" y="0" type="line"/>
      <point x="248" y="125" type="line"/>
      <point x="122" y="125" type="line"/>
    </contour>
  </outline>
</glyph>
<glyph name="D" format="1">
  <advance width="477"/>
  <unicode hex="0044"/>
  <outline>
    <contour>
      <point x="54" y="0" type="line"/>
      <point x="247" y="0" type="line" smooth="yes"/>
      <point x="393" y="0"/>
      <point x="444" y="76"/>
      <point x="444" y="345" type="curve" smooth="yes"/>
      <point x="444" y="612"/>
      <point x="392" y="690"/>
      <point x="247" y="690" type="curve" smooth="yes"/>
      <point x="14" y="690" type="line"/>
      <point x="14" y="592" type="line"/>
      <point x="54" y="592" type="line"/>
    </contour>
    <contour>
      <point x="239" y="98" type="curve" smooth="yes"/>
      <point x="175" y="98" type="line"/>
      <point x="175" y="592" type="line"/>
      <point x="239" y="592" type="line" smooth="yes"/>
      <point x="292" y="592"/>
      <point x="315" y="563"/>
      <point x="315" y="495" type="curve" smooth="yes"/>
      <point x="315" y="195" type="line" smooth="yes"/>
      <point x="315" y="127"/>
      <point x="292" y="98"/>
    </contour>
  </outline>
</glyph>
<glyph name="F" format="1">
  <advance width="413"/>
  <unicode hex="0046"/>
  <outline>
    <contour>
      <point x="54" y="0" type="line"/>
      <point x="175" y="0" type="line"/>
      <point x="175" y="307" type="line"/>
      <point x="314" y="307" type="line"/>
      <point x="314" y="397" type="line"/>
      <point x="175" y="397" type="line"/>
      <point x="175" y="592" type="line"/>
      <point x="290" y="592" type="line"/>
      <point x="290" y="483" type="line"/>
      <point x="393" y="483" type="line"/>
      <point x="393" y="690" type="line"/>
      <point x="13" y="690" type="line"/>
      <point x="13" y="592" type="line"/>
      <point x="54" y="592" type="line"/>
    </contour>
  </outline>
</glyph>
<glyph name="G" format="1">
  <advance width="472"/>
  <unicode hex="0047"/>
  <outline>
    <contour>
      <point x="193" y="-10" type="curve" smooth="yes"/>
      <point x="261" y="-10"/>
      <point x="300" y="30"/>
      <point x="308" y="108" type="curve"/>
      <point x="332" y="108" type="line"/>
      <point x="332" y="0" type="line"/>
      <point x="430" y="0" type="line"/>
      <point x="430" y="351" type="line"/>
      <point x="239" y="351" type="line"/>
      <point x="239" y="260" type="line"/>
      <point x="325" y="260" type="line"/>
      <point x="313" y="312" type="line"/>
      <point x="313" y="185" type="line" smooth="yes"/>
      <point x="313" y="126"/>
      <point x="289" y="95"/>
      <point x="237" y="95" type="curve" smooth="yes"/>
      <point x="184" y="95"/>
      <point x="160" y="125"/>
      <point x="160" y="193" type="curve" smooth="yes"/>
      <point x="160" y="498" type="line" smooth="yes"/>
      <point x="160" y="565"/>
      <point x="183" y="594"/>
      <point x="235" y="594" type="curve" smooth="yes"/>
      <point x="286" y="594"/>
      <point x="306" y="564"/>
      <point x="306" y="525" type="curve" smooth="yes"/>
      <point x="306" y="466" type="line"/>
      <point x="427" y="466" type="line"/>
      <point x="413" y="635"/>
      <point x="354" y="700"/>
      <point x="235" y="700" type="curve" smooth="yes"/>
      <point x="91" y="700"/>
      <point x="32" y="610"/>
      <point x="32" y="345" type="curve" smooth="yes"/>
      <point x="32" y="83"/>
      <point x="87" y="-10"/>
    </contour>
  </outline>
</glyph>
<glyph name="K" format="1">
  <advance width="464"/>
  <unicode hex="004B"/>
  <outline>
    <contour>
      <point x="53" y="0" type="line"/>
      <point x="174" y="0" type="line"/>
      <point x="174" y="307" type="line"/>
      <point x="217" y="307" type="line"/>
      <point x="321" y="0" type="line"/>
      <point x="458" y="0" type="line"/>
      <point x="458" y="97" type="line"/>
      <point x="417" y="97" type="line"/>
      <point x="315" y="388" type="line"/>
      <point x="310" y="333" type="line"/>
      <point x="451" y="690" type="line"/>
      <point x="325" y="690" type="line"/>
      <point x="217" y="401" type="line"/>
      <point x="174" y="401" type="line"/>
      <point x="174" y="690" type="line"/>
      <point x="12" y="690" type="line"/>
      <point x="12" y="592" type="line"/>
      <point x="53" y="592" type="line"/>
    </contour>
  </outline>
</glyph>
<glyph name="N" format="1">
  <advance width="488"/>
  <unicode hex="004E"/>
  <outline>
    <contour>
      <point x="54" y="0" type="line"/>
      <point x="172" y="0" type="line"/>
      <point x="172" y="357" type="line" smooth="yes"/>
      <point x="172" y="388"/>
      <point x="169" y="420"/>
      <point x="162" y="483" type="curve"/>
      <point x="185" y="483" type="line"/>
      <point x="327" y="0" type="line"/>
      <point x="439" y="0" type="line"/>
      <point x="439" y="690" type="line"/>
      <point x="322" y="690" type="line"/>
      <point x="322" y="473" type="line" smooth="yes"/>
      <point x="322" y="442"/>
      <point x="325" y="410"/>
      <point x="332" y="347" type="curve"/>
      <point x="308" y="347" type="line"/>
      <point x="200" y="690" type="line"/>
      <point x="14" y="690" type="line"/>
      <point x="14" y="592" type="line"/>
      <point x="54" y="592" type="line"/>
    </contour>
    <contour>
      <point x="247" y="690" type="move" name="top"/>
    </contour>
  </outline>
</glyph>
<glyph name="P" format="1">
  <advance width="442"/>
  <unicode hex="0050"/>
  <outline>
    <contour>
      <point x="53" y="0" type="line"/>
      <point x="175" y="0" type="line"/>
      <point x="175" y="284" type="line"/>
      <point x="259" y="284" type="line" smooth="yes"/>
      <point x="373" y="284"/>
      <point x="426" y="346"/>
      <point x="426" y="484" type="curve" smooth="yes"/>
      <point x="426" y="627"/>
      <point x="372" y="690"/>
      <point x="255" y="690" type="curve" smooth="yes"/>
      <point x="13" y="690" type="line"/>
      <point x="13" y="592" type="line"/>
      <point x="53" y="592" type="line"/>
    </contour>
    <contour>
      <point x="247" y="375" type="curve" smooth="yes"/>
      <point x="175" y="375" type="line"/>
      <point x="175" y="592" type="line"/>
      <point x="247" y="592" type="line" smooth="yes"/>
      <point x="284" y="592"/>
      <point x="301" y="572"/>
      <point x="301" y="531" type="curve" smooth="yes"/>
      <point x="301" y="436" type="line" smooth="yes"/>
      <point x="301" y="395"/>
      <point x="284" y="375"/>
    </contour>
  </outline>
</glyph>
<glyph name="R" format="1">
  <advance width="466"/>
  <unicode hex="0052"/>
  <outline>
    <contour>
      <point x="54" y="0" type="line"/>
      <point x="175" y="0" type="line"/>
      <point x="175" y="304" type="line"/>
      <point x="242" y="304" type="line" smooth="yes"/>
      <point x="278" y="304"/>
      <point x="294" y="286"/>
      <point x="294" y="245" type="curve" smooth="yes"/>
      <point x="294" y="0" type="line"/>
      <point x="452" y="0" type="line"/>
      <point x="452" y="98" type="line"/>
      <point x="411" y="98" type="line"/>
      <point x="411" y="213" type="line" smooth="yes"/>
      <point x="411" y="303"/>
      <point x="382" y="335"/>
      <point x="307" y="337" type="curve"/>
      <point x="307" y="361" type="line"/>
      <point x="390" y="363"/>
      <point x="428" y="405"/>
      <point x="428" y="503" type="curve" smooth="yes"/>
      <point x="428" y="632"/>
      <point x="372" y="690"/>
      <point x="258" y="690" type="curve" smooth="yes"/>
      <point x="14" y="690" type="line"/>
      <point x="14" y="592" type="line"/>
      <point x="54" y="592" type="line"/>
    </contour>
    <contour>
      <point x="250" y="395" type="curve" smooth="yes"/>
      <point x="175" y="395" type="line"/>
      <point x="175" y="592" type="line"/>
      <point x="250" y="592" type="line" smooth="yes"/>
      <point x="285" y="592"/>
      <point x="301" y="573"/>
      <point x="301" y="533" type="curve" smooth="yes"/>
      <point x="301" y="454" type="line" smooth="yes"/>
      <point x="301" y="414"/>
      <point x="285" y="395"/>
    </contour>
  </outline>
</glyph>
<glyph name="S" format="1">
  <advance width="436"/>
  <unicode hex="0053"/>
  <outline>
    <contour>
      <point x="218" y="-10" type="curve" smooth="yes"/>
      <point x="345" y="-10"/>
      <point x="406" y="50"/>
      <point x="406" y="178" type="curve" smooth="yes"/>
      <point x="406" y="284"/>
      <point x="372" y="335"/>
      <point x="288" y="378" type="curve" smooth="yes"/>
      <point x="204" y="418" type="line" smooth="yes"/>
      <point x="166" y="436"/>
      <point x="151" y="458"/>
      <point x="151" y="492" type="curve" smooth="yes"/>
      <point x="151" y="534" type="line" smooth="yes"/>
      <point x="151" y="574"/>
      <point x="174" y="594"/>
      <point x="218" y="594" type="curve" smooth="yes"/>
      <point x="267" y="594"/>
      <point x="288" y="570"/>
      <point x="288" y="520" type="curve" smooth="yes"/>
      <point x="288" y="448" type="line"/>
      <point x="408" y="448" type="line"/>
      <point x="403" y="632"/>
      <point x="351" y="700"/>
      <point x="218" y="700" type="curve" smooth="yes"/>
      <point x="92" y="700"/>
      <point x="31" y="640"/>
      <point x="31" y="512" type="curve" smooth="yes"/>
      <point x="31" y="406"/>
      <point x="64" y="354"/>
      <point x="148" y="312" type="curve" smooth="yes"/>
      <point x="232" y="272" type="line" smooth="yes"/>
      <point x="270" y="253"/>
      <point x="286" y="231"/>
      <point x="286" y="198" type="curve" smooth="yes"/>
      <point x="286" y="156" type="line" smooth="yes"/>
      <point x="286" y="116"/>
      <point x="263" y="96"/>
      <point x="218" y="96" type="curve" smooth="yes"/>
      <point x="169" y="96"/>
      <point x="148" y="120"/>
      <point x="148" y="170" type="curve" smooth="yes"/>
      <point x="148" y="242" type="line"/>
      <point x="27" y="242" type="line"/>
      <point x="32" y="58"/>
      <point x="85" y="-10"/>
    </contour>
    <contour>
      <point x="214" y="690" type="move" name="top"/>
    </contour>
  </outline>
</glyph>
<glyph name="T" format="1">
  <advance width="434"/>
  <unicode hex="0054"/>
  <outline>
    <contour>
      <point x="158" y="0" type="line"/>
      <point x="276" y="0" type="line"/>
      <point x="276" y="592" type="line"/>
      <point x="321" y="592" type="line"/>
      <point x="321" y="483" type="line"/>
      <point x="421" y="483" type="line"/>
      <point x="421" y="690" type="line"/>
      <point x="14" y="690" type="line"/>
      <point x="14" y="483" type="line"/>
      <point x="114" y="483" type="line"/>
      <point x="114" y="592" type="line"/>
      <point x="158" y="592" type="line"/>
    </contour>
  </outline>
</glyph>
<glyph name="bracketleft" format="1">
  <advance width="243"/>
  <unicode hex="005B"/>
  <outline>
    <contour>
      <point x="50" y="-92" type="line"/>
      <point x="221" y="-92" type="line"/>
      <point x="221" y="-1" type="line"/>
      <point x="159" y="-1" type="line"/>
      <point x="159" y="691" type="line"/>
      <point x="221" y="691" type="line"/>
      <point x="221" y="782" type="line"/>
      <point x="50" y="782" type="line"/>
    </contour>
  </outline>
</glyph>
<glyph name="b" format="1">
  <advance width="432"/>
  <unicode hex="0062"/>
  <outline>
    <contour>
      <point x="269" y="-10" type="curve" smooth="yes"/>
      <point x="358" y="-10"/>
      <point x="406" y="81"/>
      <point x="406" y="267" type="curve" smooth="yes"/>
      <point x="406" y="453"/>
      <point x="358" y="544"/>
      <point x="269" y="544" type="curve" smooth="yes"/>
      <point x="215" y="544"/>
      <point x="184" y="512"/>
      <point x="175" y="446" type="curve"/>
      <point x="151" y="446" type="line"/>
      <point x="158" y="509"/>
      <point x="161" y="541"/>
      <point x="161" y="572" type="curve" smooth="yes"/>
      <point x="161" y="690" type="line"/>
      <point x="8" y="690" type="line"/>
      <point x="8" y="596" type="line"/>
      <point x="44" y="596" type="line"/>
      <point x="44" y="0" type="line"/>
      <point x="142" y="0" type="line"/>
      <point x="142" y="98" type="line"/>
      <point x="166" y="98" type="line"/>
      <point x="173" y="29"/>
      <point x="211" y="-10"/>
    </contour>
    <contour>
      <point x="221" y="92" type="curve" smooth="yes"/>
      <point x="180" y="92"/>
      <point x="161" y="116"/>
      <point x="161" y="171" type="curve" smooth="yes"/>
      <point x="161" y="363" type="line" smooth="yes"/>
      <point x="161" y="418"/>
      <point x="180" y="442"/>
      <point x="221" y="442" type="curve" smooth="yes"/>
      <point x="262" y="442"/>
      <point x="281" y="418"/>
      <point x="281" y="363" type="curve" smooth="yes"/>
      <point x="281" y="171" type="line" smooth="yes"/>
      <point x="281" y="116"/>
      <point x="262" y="92"/>
    </contour>
  </outline>
</glyph>
<glyph name="c" format="1">
  <advance width="408"/>
  <unicode hex="0063"/>
  <outline>
    <contour>
      <point x="209" y="-10" type="curve" smooth="yes"/>
      <point x="316" y="-10"/>
      <point x="373" y="52"/>
      <point x="383" y="194" type="curve"/>
      <point x="265" y="194" type="line"/>
      <point x="265" y="152" type="line"/>
      <point x="265" y="116"/>
      <point x="249" y="92"/>
      <point x="209" y="92" type="curve" smooth="yes"/>
      <point x="169" y="92"/>
      <point x="151" y="115"/>
      <point x="151" y="169" type="curve" smooth="yes"/>
      <point x="151" y="365" type="line" smooth="yes"/>
      <point x="151" y="419"/>
      <point x="169" y="442"/>
      <point x="209" y="442" type="curve" smooth="yes"/>
      <point x="249" y="442"/>
      <point x="265" y="418"/>
      <point x="265" y="385" type="curve" smooth="yes"/>
      <point x="265" y="348" type="line"/>
      <point x="383" y="348" type="line"/>
      <point x="370" y="485"/>
      <point x="314" y="544"/>
      <point x="209" y="544" type="curve" smooth="yes"/>
      <point x="84" y="544"/>
      <point x="26" y="461"/>
      <point x="26" y="267" type="curve" smooth="yes"/>
      <point x="26" y="73"/>
      <point x="84" y="-10"/>
    </contour>
    <contour>
      <point x="209" y="0" type="move" name="bottom"/>
    </contour>
    <contour>
      <point x="209" y="534" type="move" name="top"/>
    </contour>
  </outline>
</glyph>
<glyph name="d" format="1">
  <advance width="438"/>
  <unicode hex="0064"/>
  <outline>
    <contour>
      <point x="163" y="-10" type="curve" smooth="yes"/>
      <point x="221" y="-10"/>
      <point x="259" y="29"/>
      <point x="266" y="98" type="curve"/>
      <point x="290" y="98" type="line"/>
      <point x="290" y="80" type="line" smooth="yes"/>
      <point x="290" y="28"/>
      <point x="318" y="0"/>
      <point x="369" y="0" type="curve" smooth="yes"/>
      <point x="424" y="0" type="line"/>
      <point x="424" y="94" type="line"/>
      <point x="388" y="94" type="line"/>
      <point x="388" y="690" type="line"/>
      <point x="234" y="690" type="line"/>
      <point x="234" y="596" type="line"/>
      <point x="271" y="596" type="line"/>
      <point x="271" y="572" type="line" smooth="yes"/>
      <point x="271" y="541"/>
      <point x="274" y="509"/>
      <point x="281" y="446" type="curve"/>
      <point x="257" y="446" type="line"/>
      <point x="248" y="512"/>
      <point x="217" y="544"/>
      <point x="163" y="544" type="curve" smooth="yes"/>
      <point x="73" y="544"/>
      <point x="26" y="453"/>
      <point x="26" y="267" type="curve" smooth="yes"/>
      <point x="26" y="81"/>
      <point x="74" y="-10"/>
    </contour>
    <contour>
      <point x="211" y="92" type="curve" smooth="yes"/>
      <point x="170" y="92"/>
      <point x="151" y="116"/>
      <point x="151" y="171" type="curve" smooth="yes"/>
      <point x="151" y="363" type="line" smooth="yes"/>
      <point x="151" y="418"/>
      <point x="170" y="442"/>
      <point x="211" y="442" type="curve" smooth="yes"/>
      <point x="252" y="442"/>
      <point x="271" y="418"/>
      <point x="271" y="363" type="curve" smooth="yes"/>
      <point x="271" y="171" type="line" smooth="yes"/>
      <point x="271" y="116"/>
      <point x="252" y="92"/>
    </contour>
  </outline>
</glyph>
<glyph name="e" format="1">
  <advance width="414"/>
  <unicode hex="0065"/>
  <outline>
    <contour>
      <point x="211" y="-10" type="curve" smooth="yes"/>
      <point x="315" y="-10"/>
      <point x="371" y="45"/>
      <point x="385" y="172" type="curve"/>
      <point x="268" y="172" type="line"/>
      <point x="268" y="146" type="line"/>
      <point x="268" y="116"/>
      <point x="252" y="92"/>
      <point x="211" y="92" type="curve" smooth="yes"/>
      <point x="170" y="92"/>
      <point x="151" y="116"/>
      <point x="151" y="171" type="curve" smooth="yes"/>
      <point x="151" y="366" type="line" smooth="yes"/>
      <point x="151" y="422"/>
      <point x="170" y="446"/>
      <point x="211" y="446" type="curve" smooth="yes"/>
      <point x="253" y="446"/>
      <point x="272" y="422"/>
      <point x="272" y="366" type="curve" smooth="yes"/>
      <point x="272" y="283" type="line"/>
      <point x="351" y="327" type="line"/>
      <point x="97" y="327" type="line"/>
      <point x="97" y="241" type="line"/>
      <point x="389" y="241" type="line"/>
      <point x="389" y="287" type="line" smooth="yes"/>
      <point x="389" y="467"/>
      <point x="333" y="544"/>
      <point x="211" y="544" type="curve" smooth="yes"/>
      <point x="84" y="544"/>
      <point x="26" y="461"/>
      <point x="26" y="267" type="curve" smooth="yes"/>
      <point x="26" y="73"/>
      <point x="84" y="-10"/>
    </contour>
    <contour>
      <point x="277" y="0" type="move" name="ogonek"/>
    </contour>
    <contour>
      <point x="211" y="534" type="move" name="top"/>
    </contour>
  </outline>
</glyph>
<glyph name="f" format="1">
  <advance width="272"/>
  <unicode hex="0066"/>
  <outline>
    <contour>
      <point x="69" y="610" type="curve" smooth="yes"/>
      <point x="69" y="0" type="line"/>
      <point x="186" y="0" type="line"/>
      <point x="186" y="596" type="line"/>
      <point x="259" y="596" type="line"/>
      <point x="259" y="690" type="line"/>
      <point x="149" y="690" type="line" smooth="yes"/>
      <point x="97" y="690"/>
      <point x="69" y="662"/>
    </contour>
    <contour>
      <point x="27" y="0" type="line"/>
      <point x="246" y="0" type="line"/>
      <point x="246" y="94" type="line"/>
      <point x="27" y="94" type="line"/>
    </contour>
    <contour>
      <point x="22" y="440" type="line"/>
      <point x="259" y="440" type="line"/>
      <point x="259" y="534" type="line"/>
      <point x="22" y="534" type="line"/>
    </contour>
  </outline>
</glyph>
<glyph name="g" format="1">
  <advance width="407"/>
  <unicode hex="0067"/>
  <outline>
    <contour>
      <point x="38" y="-132" type="line"/>
      <point x="247" y="-132" type="line" smooth="yes"/>
      <point x="343" y="-132"/>
      <point x="394" y="-87"/>
      <point x="394" y="-1" type="curve" smooth="yes"/>
      <point x="394" y="78"/>
      <point x="348" y="121"/>
      <point x="263" y="121" type="curve" smooth="yes"/>
      <point x="170" y="121" type="line" smooth="yes"/>
      <point x="149" y="121"/>
      <point x="140" y="128"/>
      <point x="140" y="143" type="curve" smooth="yes"/>
      <point x="140" y="158"/>
      <point x="149" y="166"/>
      <point x="170" y="166" type="curve" smooth="yes"/>
      <point x="201" y="166" type="line" smooth="yes"/>
      <point x="313" y="166"/>
      <point x="370" y="225"/>
      <point x="370" y="352" type="curve" smooth="yes"/>
      <point x="370" y="481"/>
      <point x="313" y="544"/>
      <point x="199" y="544" type="curve" smooth="yes"/>
      <point x="85" y="544"/>
      <point x="28" y="481"/>
      <point x="28" y="352" type="curve" smooth="yes"/>
      <point x="28" y="258"/>
      <point x="55" y="204"/>
      <point x="114" y="184" type="curve"/>
      <point x="114" y="162" type="line"/>
      <point x="65" y="162"/>
      <point x="32" y="136"/>
      <point x="32" y="91" type="curve" smooth="yes"/>
      <point x="32" y="44"/>
      <point x="67" y="19"/>
      <point x="135" y="19" type="curve" smooth="yes"/>
      <point x="240" y="19" type="line" smooth="yes"/>
      <point x="265" y="19"/>
      <point x="276" y="10"/>
      <point x="276" y="-9" type="curve" smooth="yes"/>
      <point x="276" y="-29"/>
      <point x="265" y="-38"/>
      <point x="240" y="-38" type="curve" smooth="yes"/>
      <point x="38" y="-38" type="line"/>
    </contour>
    <contour>
      <point x="199" y="258" type="curve" smooth="yes"/>
      <point x="162" y="258"/>
      <point x="144" y="276"/>
      <point x="144" y="317" type="curve" smooth="yes"/>
      <point x="144" y="388" type="line" smooth="yes"/>
      <point x="144" y="429"/>
      <point x="162" y="447"/>
      <point x="199" y="447" type="curve" smooth="yes"/>
      <point x="236" y="447"/>
      <point x="254" y="429"/>
      <point x="254" y="388" type="curve" smooth="yes"/>
      <point x="254" y="317" type="line" smooth="yes"/>
      <point x="254" y="276"/>
      <point x="236" y="258"/>
    </contour>
    <contour>
      <point x="257" y="517" type="curve"/>
      <point x="276" y="495" type="line"/>
      <point x="276" y="522"/>
      <point x="286" y="534"/>
      <point x="308" y="534" type="curve" smooth="yes"/>
      <point x="392" y="534" type="line"/>
      <point x="392" y="628" type="line"/>
      <point x="342" y="628" type="line" smooth="yes"/>
      <point x="285" y="628"/>
      <point x="257" y="591"/>
    </contour>
  </outline>
</glyph>
<glyph name="h" format="1">
  <advance width="435"/>
  <unicode hex="0068"/>
  <outline>
    <contour>
      <point x="44" y="0" type="line"/>
      <point x="161" y="0" type="line"/>
      <point x="161" y="373" type="line" smooth="yes"/>
      <point x="161" y="421"/>
      <point x="178" y="442"/>
      <point x="215" y="442" type="curve" smooth="yes"/>
      <point x="252" y="442"/>
      <point x="269" y="421"/>
      <point x="269" y="373" type="curve" smooth="yes"/>
      <point x="269" y="0" type="line"/>
      <point x="422" y="0" type="line"/>
      <point x="422" y="94" type="line"/>
      <point x="386" y="94" type="line"/>
      <point x="386" y="394" type="line" smooth="yes"/>
      <point x="386" y="492"/>
      <point x="347" y="544"/>
      <point x="271" y="544" type="curve" smooth="yes"/>
      <point x="214" y="544"/>
      <point x="184" y="513"/>
      <point x="175" y="446" type="curve"/>
      <point x="151" y="446" type="line"/>
      <point x="158" y="509"/>
      <point x="161" y="541"/>
      <point x="161" y="572" type="curve" smooth="yes"/>
      <point x="161" y="690" type="line"/>
      <point x="8" y="690" type="line"/>
      <point x="8" y="596" type="line"/>
      <point x="44" y="596" type="line"/>
    </contour>
  </outline>
</glyph>
<glyph name="l" format="1">
  <advance width="205"/>
  <unicode hex="006C"/>
  <outline>
    <contour>
      <point x="45" y="0" type="line"/>
      <point x="163" y="0" type="line"/>
      <point x="163" y="690" type="line"/>
      <point x="8" y="690" type="line"/>
      <point x="8" y="596" type="line"/>
      <point x="45" y="596" type="line"/>
    </contour>
  </outline>
</glyph>
<glyph name="m" format="1">
  <advance width="652"/>
  <unicode hex="006D"/>
  <outline>
    <contour>
      <point x="269" y="377" type="curve" smooth="yes"/>
      <point x="269" y="0" type="line"/>
      <point x="386" y="0" type="line"/>
      <point x="386" y="377" type="line" smooth="yes"/>
      <point x="386" y="422"/>
      <point x="402" y="442"/>
      <point x="436" y="442" type="curve" smooth="yes"/>
      <point x="470" y="442"/>
      <point x="486" y="422"/>
      <point x="486" y="377" type="curve" smooth="yes"/>
      <point x="486" y="0" type="line"/>
      <point x="639" y="0" type="line"/>
      <point x="639" y="94" type="line"/>
      <point x="603" y="94" type="line"/>
      <point x="603" y="394" type="line" smooth="yes"/>
      <point x="603" y="492"/>
      <point x="565" y="544"/>
      <point x="492" y="544" type="curve" smooth="yes"/>
      <point x="431" y="544"/>
      <point x="397" y="508"/>
      <point x="391" y="437" type="curve"/>
      <point x="369" y="437" type="line"/>
      <point x="363" y="510"/>
      <point x="333" y="544"/>
      <point x="275" y="544" type="curve" smooth="yes"/>
      <point x="214" y="544"/>
      <point x="180" y="508"/>
      <point x="174" y="437" type="curve"/>
      <point x="150" y="437" type="line"/>
      <point x="150" y="534" type="line"/>
      <point x="16" y="534" type="line"/>
      <point x="16" y="440" type="line"/>
      <point x="52" y="440" type="line"/>
      <point x="52" y="0" type="line"/>
      <point x="169" y="0" type="line"/>
      <point x="169" y="377" type="line" smooth="yes"/>
      <point x="169" y="422"/>
      <point x="185" y="442"/>
      <point x="219" y="442" type="curve" smooth="yes"/>
      <point x="253" y="442"/>
      <point x="269" y="422"/>
    </contour>
  </outline>
</glyph>
<glyph name="o" format="1">
  <advance width="424"/>
  <unicode hex="006F"/>
  <outline>
    <contour>
      <point x="212" y="-10" type="curve" smooth="yes"/>
      <point x="340" y="-10"/>
      <point x="398" y="73"/>
      <point x="398" y="267" type="curve" smooth="yes"/>
      <point x="398" y="461"/>
      <point x="340" y="544"/>
      <point x="212" y="544" type="curve" smooth="yes"/>
      <point x="84" y="544"/>
      <point x="26" y="461"/>
      <point x="26" y="267" type="curve" smooth="yes"/>
      <point x="26" y="73"/>
      <point x="84" y="-10"/>
    </contour>
    <contour>
      <point x="212" y="92" type="curve" smooth="yes"/>
      <point x="170" y="92"/>
      <point x="151" y="116"/>
      <point x="151" y="171" type="curve" smooth="yes"/>
      <point x="151" y="363" type="line" smooth="yes"/>
      <point x="151" y="418"/>
      <point x="170" y="442"/>
      <point x="212" y="442" type="curve" smooth="yes"/>
      <point x="254" y="442"/>
      <point x="273" y="418"/>
      <point x="273" y="363" type="curve" smooth="yes"/>
      <point x="273" y="171" type="line" smooth="yes"/>
      <point x="273" y="116"/>
      <point x="254" y="92"/>
    </contour>
    <contour>
      <point x="212" y="534" type="move" name="top"/>
    </contour>
  </outline>
</glyph>
<glyph name="r" format="1">
  <advance width="323"/>
  <unicode hex="0072"/>
  <outline>
    <contour>
      <point x="52" y="0" type="line"/>
      <point x="169" y="0" type="line"/>
      <point x="169" y="370" type="line" smooth="yes"/>
      <point x="169" y="418"/>
      <point x="186" y="440"/>
      <point x="223" y="440" type="curve" smooth="yes"/>
      <point x="306" y="440" type="line"/>
      <point x="306" y="542" type="line"/>
      <point x="271" y="542" type="line" smooth="yes"/>
      <point x="212" y="542"/>
      <point x="181" y="507"/>
      <point x="174" y="436" type="curve"/>
      <point x="150" y="436" type="line"/>
      <point x="150" y="534" type="line"/>
      <point x="16" y="534" type="line"/>
      <point x="16" y="440" type="line"/>
      <point x="52" y="440" type="line"/>
    </contour>
  </outline>
</glyph>
<glyph name="s" format="1">
  <advance width="389"/>
  <unicode hex="0073"/>
  <outline>
    <contour>
      <point x="194" y="-10" type="curve" smooth="yes"/>
      <point x="307" y="-10"/>
      <point x="366" y="45"/>
      <point x="366" y="149" type="curve" smooth="yes"/>
      <point x="366" y="222"/>
      <point x="335" y="265"/>
      <point x="260" y="300" type="curve" smooth="yes"/>
      <point x="185" y="333" type="line" smooth="yes"/>
      <point x="153" y="349"/>
      <point x="141" y="365"/>
      <point x="141" y="397" type="curve" smooth="yes"/>
      <point x="141" y="430"/>
      <point x="159" y="446"/>
      <point x="195" y="446" type="curve" smooth="yes"/>
      <point x="235" y="446"/>
      <point x="251" y="425"/>
      <point x="251" y="390" type="curve" smooth="yes"/>
      <point x="251" y="362" type="line"/>
      <point x="366" y="362" type="line"/>
      <point x="353" y="493"/>
      <point x="303" y="544"/>
      <point x="195" y="544" type="curve" smooth="yes"/>
      <point x="83" y="544"/>
      <point x="25" y="489"/>
      <point x="25" y="386" type="curve" smooth="yes"/>
      <point x="25" y="312"/>
      <point x="54" y="269"/>
      <point x="129" y="234" type="curve" smooth="yes"/>
      <point x="204" y="201" type="line" smooth="yes"/>
      <point x="236" y="185"/>
      <point x="249" y="169"/>
      <point x="249" y="137" type="curve" smooth="yes"/>
      <point x="249" y="104"/>
      <point x="231" y="88"/>
      <point x="194" y="88" type="curve" smooth="yes"/>
      <point x="154" y="88"/>
      <point x="138" y="109"/>
      <point x="138" y="144" type="curve" smooth="yes"/>
      <point x="138" y="172" type="line"/>
      <point x="22" y="172" type="line"/>
      <point x="35" y="41"/>
      <point x="86" y="-10"/>
    </contour>
    <contour>
      <point x="191" y="534" type="move" name="top"/>
    </contour>
  </outline>
</glyph>
<glyph name="t" format="1">
  <advance width="263"/>
  <unicode hex="0074"/>
  <outline>
    <contour>
      <point x="140" y="0" type="curve" smooth="yes"/>
      <point x="242" y="0" type="line"/>
      <point x="242" y="94" type="line"/>
      <point x="178" y="94" type="line"/>
      <point x="178" y="634" type="line"/>
      <point x="105" y="634" type="line"/>
      <point x="60" y="534" type="line"/>
      <point x="60" y="80" type="line" smooth="yes"/>
      <point x="60" y="28"/>
      <point x="88" y="0"/>
    </contour>
    <contour>
      <point x="9" y="440" type="line"/>
      <point x="242" y="440" type="line"/>
      <point x="242" y="534" type="line"/>
      <point x="9" y="534" type="line"/>
    </contour>
  </outline>
</glyph>
<glyph name="v" format="1">
  <advance width="391"/>
  <unicode hex="0076"/>
  <outline>
    <contour>
      <point x="89" y="0" type="line"/>
      <point x="300" y="0" type="line"/>
      <point x="379" y="534" type="line"/>
      <point x="264" y="534" type="line"/>
      <point x="209" y="109" type="line"/>
      <point x="185" y="109" type="line"/>
      <point x="131" y="534" type="line"/>
      <point x="11" y="534" type="line"/>
    </contour>
  </outline>
</glyph>
<glyph name="y" format="1">
  <advance width="392"/>
  <unicode hex="0079"/>
  <outline>
    <contour>
      <point x="54" y="-132" type="line"/>
      <point x="207" y="-132" type="line" smooth="yes"/>
      <point x="259" y="-132"/>
      <point x="285" y="-104"/>
      <point x="293" y="-52" type="curve" smooth="yes"/>
      <point x="380" y="534" type="line"/>
      <point x="265" y="534" type="line"/>
      <point x="211" y="113" type="line"/>
      <point x="187" y="113" type="line"/>
      <point x="132" y="534" type="line"/>
      <point x="12" y="534" type="line"/>
      <point x="89" y="19" type="line"/>
      <point x="194" y="19" type="line"/>
      <point x="185" y="-38" type="line"/>
      <point x="54" y="-38" type="line"/>
    </contour>
    <contour>
      <point x="199" y="534" type="move" name="top"/>
    </contour>
  </outline>
</glyph>
<glyph name="braceright" format="1">
  <advance width="263"/>
  <unicode hex="007D"/>
  <outline>
    <contour>
      <point x="118" y="782" type="curve" smooth="yes"/>
      <point x="24" y="782" type="line"/>
      <point x="24" y="691" type="line"/>
      <point x="66" y="691" type="line" smooth="yes"/>
      <point x="82" y="691"/>
      <point x="91" y="683"/>
      <point x="91" y="667" type="curve" smooth="yes"/>
      <point x="91" y="640"/>
      <point x="71" y="490"/>
      <point x="71" y="441" type="curve" smooth="yes"/>
      <point x="71" y="384"/>
      <point x="95" y="357"/>
      <point x="151" y="357" type="curve"/>
      <point x="151" y="333" type="line"/>
      <point x="95" y="333"/>
      <point x="71" y="306"/>
      <point x="71" y="249" type="curve" smooth="yes"/>
      <point x="71" y="200"/>
      <point x="91" y="50"/>
      <point x="91" y="23" type="curve" smooth="yes"/>
      <point x="91" y="7"/>
      <point x="82" y="-1"/>
      <point x="66" y="-1" type="curve" smooth="yes"/>
      <point x="24" y="-1" type="line"/>
      <point x="24" y="-92" type="line"/>
      <point x="118" y="-92" type="line" smooth="yes"/>
      <point x="171" y="-92"/>
      <point x="199" y="-64"/>
      <point x="199" y="-10" type="curve" smooth="yes"/>
      <point x="199" y="39"/>
      <point x="176" y="213"/>
      <point x="176" y="256" type="curve" smooth="yes"/>
      <point x="176" y="286"/>
      <point x="187" y="300"/>
      <point x="211" y="300" type="curve" smooth="yes"/>
      <point x="244" y="300" type="line"/>
      <point x="244" y="390" type="line"/>
      <point x="211" y="390" type="line" smooth="yes"/>
      <point x="187" y="390"/>
      <point x="176" y="404"/>
      <point x="176" y="434" type="curve" smooth="yes"/>
      <point x="176" y="477"/>
      <point x="199" y="651"/>
      <point x="199" y="700" type="curve" smooth="yes"/>
      <point x="199" y="754"/>
      <point x="171" y="782"/>
    </contour>
  </outline>
</glyph>
<glyph name="sterling" format="1">
  <advance width="433"/>
  <unicode hex="00A3"/>
  <outline>
    <contour>
      <point x="36" y="108" type="curve"/>
      <point x="36" y="0" type="line"/>
      <point x="407" y="0" type="line"/>
      <point x="407" y="110" type="line"/>
      <point x="164" y="110" type="line"/>
      <point x="194" y="137"/>
      <point x="217" y="180"/>
      <point x="217" y="235" type="curve" smooth="yes"/>
      <point x="217" y="323"/>
      <point x="170" y="402"/>
      <point x="170" y="489" type="curve" smooth="yes"/>
      <point x="170" y="535" type="line" smooth="yes"/>
      <point x="170" y="572"/>
      <point x="191" y="594"/>
      <point x="227" y="594" type="curve" smooth="yes"/>
      <point x="264" y="594"/>
      <point x="287" y="574"/>
      <point x="287" y="527" type="curve" smooth="yes"/>
      <point x="287" y="448" type="line"/>
      <point x="404" y="448" type="line"/>
      <point x="402" y="630"/>
      <point x="344" y="700"/>
      <point x="222" y="700" type="curve" smooth="yes"/>
      <point x="115" y="700"/>
      <point x="49" y="628"/>
      <point x="49" y="510" type="curve" smooth="yes"/>
      <point x="49" y="402"/>
      <point x="103" y="333"/>
      <point x="103" y="233" type="curve" smooth="yes"/>
      <point x="103" y="185"/>
      <point x="87" y="147"/>
    </contour>
    <contour>
      <point x="31" y="286" type="line"/>
      <point x="336" y="286" type="line"/>
      <point x="336" y="378" type="line"/>
      <point x="31" y="378" type="line"/>
    </contour>
  </outline>
</glyph>
<glyph name="currency" format="1">
  <advance width="461"/>
  <unicode hex="00A4"/>
  <outline>
    <contour>
      <point x="231" y="128" type="curve" smooth="yes"/>
      <point x="354" y="128"/>
      <point x="409" y="207"/>
      <point x="409" y="345" type="curve" smooth="yes"/>
      <point x="409" y="484"/>
      <point x="354" y="562"/>
      <point x="231" y="562" type="curve" smooth="yes"/>
      <point x="107" y="562"/>
      <point x="52" y="484"/>
      <point x="52" y="345" type="curve" smooth="yes"/>
      <point x="52" y="207"/>
      <point x="107" y="128"/>
    </contour>
    <contour>
      <point x="105" y="61" type="line"/>
      <point x="188" y="180" type="line"/>
      <point x="122" y="239" type="line"/>
      <point x="34" y="112" type="line"/>
    </contour>
    <contour>
      <point x="357" y="61" type="line"/>
      <point x="428" y="112" type="line"/>
      <point x="339" y="239" type="line"/>
      <point x="273" y="180" type="line"/>
    </contour>
    <contour>
      <point x="231" y="230" type="curve" smooth="yes"/>
      <point x="192" y="230"/>
      <point x="175" y="251"/>
      <point x="175" y="292" type="curve" smooth="yes"/>
      <point x="175" y="399" type="line" smooth="yes"/>
      <point x="175" y="440"/>
      <point x="192" y="461"/>
      <point x="231" y="461" type="curve" smooth="yes"/>
      <point x="269" y="461"/>
      <point x="286" y="440"/>
      <point x="286" y="399" type="curve" smooth="yes"/>
      <point x="286" y="292" type="line" smooth="yes"/>
      <point x="286" y="251"/>
      <point x="269" y="230"/>
    </contour>
    <contour>
      <point x="122" y="452" type="line"/>
      <point x="188" y="510" type="line"/>
      <point x="105" y="629" type="line"/>
      <point x="34" y="578" type="line"/>
    </contour>
    <contour>
      <point x="339" y="452" type="line"/>
      <point x="428" y="578" type="line"/>
      <point x="357" y="629" type="line"/>
      <point x="273" y="510" type="line"/>
    </contour>
  </outline>
</glyph>
<glyph name="copyright" format="1">
  <advance width="672"/>
  <unicode hex="00A9"/>
  <outline>
    <contour>
      <point x="336" y="-40" type="curve" smooth="yes"/>
      <point x="521" y="-40"/>
      <point x="632" y="95"/>
      <point x="632" y="345" type="curve" smooth="yes"/>
      <point x="632" y="595"/>
      <point x="521" y="730"/>
      <point x="336" y="730" type="curve" smooth="yes"/>
      <point x="151" y="730"/>
      <point x="39" y="595"/>
      <point x="39" y="345" type="curve" smooth="yes"/>
      <point x="39" y="95"/>
      <point x="151" y="-40"/>
    </contour>
    <contour>
      <point x="336" y="11" type="curve" smooth="yes"/>
      <point x="181" y="11"/>
      <point x="94" y="130"/>
      <point x="94" y="306" type="curve" smooth="yes"/>
      <point x="94" y="384" type="line" smooth="yes"/>
      <point x="94" y="560"/>
      <point x="181" y="679"/>
      <point x="336" y="679" type="curve" smooth="yes"/>
      <point x="491" y="679"/>
      <point x="577" y="560"/>
      <point x="577" y="384" type="curve" smooth="yes"/>
      <point x="577" y="306" type="line" smooth="yes"/>
      <point x="577" y="130"/>
      <point x="491" y="11"/>
    </contour>
    <contour>
      <point x="338" y="100" type="curve" smooth="yes"/>
      <point x="432" y="100"/>
      <point x="485" y="154"/>
      <point x="494" y="284" type="curve"/>
      <point x="387" y="284" type="line"/>
      <point x="387" y="245" type="line" smooth="yes"/>
      <point x="387" y="216"/>
      <point x="373" y="195"/>
      <point x="338" y="195" type="curve" smooth="yes"/>
      <point x="304" y="195"/>
      <point x="289" y="215"/>
      <point x="289" y="259" type="curve" smooth="yes"/>
      <point x="289" y="433" type="line" smooth="yes"/>
      <point x="289" y="476"/>
      <point x="304" y="496"/>
      <point x="338" y="496" type="curve" smooth="yes"/>
      <point x="373" y="496"/>
      <point x="387" y="475"/>
      <point x="387" y="448" type="curve"/>
      <point x="387" y="414" type="line"/>
      <point x="494" y="414" type="line"/>
      <point x="483" y="539"/>
      <point x="430" y="591"/>
      <point x="338" y="591" type="curve" smooth="yes"/>
      <point x="229" y="591"/>
      <point x="174" y="521"/>
      <point x="174" y="346" type="curve" smooth="yes"/>
      <point x="174" y="170"/>
      <point x="229" y="100"/>
    </contour>
  </outline>
</glyph>
<glyph name="guillemetleft" format="1">
  <advance width="381"/>
  <unicode hex="00AB"/>
  <outline>
    <contour>
      <point x="253" y="82" type="line"/>
      <point x="353" y="82" type="line"/>
      <point x="274" y="274" type="line"/>
      <point x="274" y="294" type="line"/>
      <point x="353" y="486" type="line"/>
      <point x="253" y="486" type="line"/>
      <point x="173" y="308" type="line"/>
      <point x="173" y="260" type="line"/>
    </contour>
    <contour>
      <point x="108" y="82" type="line"/>
      <point x="208" y="82" type="line"/>
      <point x="129" y="274" type="line"/>
      <point x="129" y="294" type="line"/>
      <point x="208" y="486" type="line"/>
      <point x="108" y="486" type="line"/>
      <point x="28" y="308" type="line"/>
      <point x="28" y="260" type="line"/>
    </contour>
  </outline>
</glyph>
<glyph name="registered" format="1">
  <advance width="423"/>
  <unicode hex="00AE"/>
  <outline>
    <contour>
      <point x="212" y="293" type="curve" smooth="yes"/>
      <point x="319" y="293"/>
      <point x="384" y="368"/>
      <point x="384" y="497" type="curve" smooth="yes"/>
      <point x="384" y="625"/>
      <point x="319" y="700"/>
      <point x="212" y="700" type="curve" smooth="yes"/>
      <point x="104" y="700"/>
      <point x="39" y="625"/>
      <point x="39" y="497" type="curve" smooth="yes"/>
      <point x="39" y="368"/>
      <point x="104" y="293"/>
    </contour>
    <contour>
      <point x="239" y="382" type="line"/>
      <point x="300" y="382" type="line"/>
      <point x="261" y="494" type="line"/>
      <point x="205" y="492" type="line"/>
    </contour>
    <contour>
      <point x="212" y="331" type="curve" smooth="yes"/>
      <point x="126" y="331"/>
      <point x="82" y="381"/>
      <point x="82" y="481" type="curve" smooth="yes"/>
      <point x="82" y="513" type="line" smooth="yes"/>
      <point x="82" y="613"/>
      <point x="126" y="662"/>
      <point x="212" y="662" type="curve" smooth="yes"/>
      <point x="297" y="662"/>
      <point x="341" y="613"/>
      <point x="341" y="513" type="curve" smooth="yes"/>
      <point x="341" y="481" type="line" smooth="yes"/>
      <point x="341" y="381"/>
      <point x="297" y="331"/>
    </contour>
    <contour>
      <point x="134" y="382" type="line"/>
      <point x="193" y="382" type="line"/>
      <point x="193" y="468" type="line"/>
      <point x="220" y="468" type="line" smooth="yes"/>
      <point x="268" y="468"/>
      <point x="297" y="494"/>
      <point x="297" y="539" type="curve" smooth="yes"/>
      <point x="297" y="584"/>
      <point x="267" y="611"/>
      <point x="219" y="611" type="curve" smooth="yes"/>
      <point x="134" y="611" type="line"/>
    </contour>
    <contour>
      <point x="216" y="508" type="curve" smooth="yes"/>
      <point x="192" y="508" type="line"/>
      <point x="192" y="567" type="line"/>
      <point x="216" y="567" type="line" smooth="yes"/>
      <point x="232" y="567"/>
      <point x="239" y="560"/>
      <point x="239" y="543" type="curve" smooth="yes"/>
      <point x="239" y="532" type="line" smooth="yes"/>
      <point x="239" y="516"/>
      <point x="232" y="508"/>
    </contour>
  </outline>
</glyph>
<glyph name="degree" format="1">
  <advance width="322"/>
  <unicode hex="00B0"/>
  <outline>
    <contour>
      <point x="161" y="371" type="curve" smooth="yes"/>
      <point x="248" y="371"/>
      <point x="292" y="425"/>
      <point x="292" y="535" type="curve" smooth="yes"/>
      <point x="292" y="645"/>
      <point x="248" y="699"/>
      <point x="161" y="699" type="curve" smooth="yes"/>
      <point x="74" y="699"/>
      <point x="30" y="645"/>
      <point x="30" y="535" type="curve" smooth="yes"/>
      <point x="30" y="425"/>
      <point x="74" y="371"/>
    </contour>
    <contour>
      <point x="161" y="445" type="curve" smooth="yes"/>
      <point x="133" y="445"/>
      <point x="121" y="459"/>
      <point x="121" y="492" type="curve" smooth="yes"/>
      <point x="121" y="579" type="line" smooth="yes"/>
      <point x="121" y="611"/>
      <point x="133" y="625"/>
      <point x="161" y="625" type="curve" smooth="yes"/>
      <point x="189" y="625"/>
      <point x="201" y="611"/>
      <point x="201" y="579" type="curve" smooth="yes"/>
      <point x="201" y="491" type="line" smooth="yes"/>
      <point x="201" y="459"/>
      <point x="189" y="445"/>
    </contour>
  </outline>
</glyph>
<glyph name="plusminus" format="1">
  <advance width="384"/>
  <unicode hex="00B1"/>
  <outline>
    <contour>
      <point x="22" y="303" type="line"/>
      <point x="361" y="303" type="line"/>
      <point x="361" y="397" type="line"/>
      <point x="22" y="397" type="line"/>
    </contour>
    <contour>
      <point x="142" y="177" type="line"/>
      <point x="241" y="177" type="line"/>
      <point x="241" y="524" type="line"/>
      <point x="142" y="524" type="line"/>
    </contour>
    <contour>
      <point x="22" y="35" type="line"/>
      <point x="361" y="35" type="line"/>
      <point x="361" y="129" type="line"/>
      <point x="22" y="129" type="line"/>
    </contour>
  </outline>
</glyph>
<glyph name="micro" format="1">
  <advance width="438"/>
  <unicode hex="00B5"/>
  <outline>
    <contour>
      <point x="48" y="-132" type="line"/>
      <point x="165" y="-132" type="line"/>
      <point x="165" y="-34" type="line" smooth="yes"/>
      <point x="165" y="-7"/>
      <point x="162" y="25"/>
      <point x="155" y="88" type="curve"/>
      <point x="129" y="47" type="line"/>
      <point x="136" y="12"/>
      <point x="155" y="-6"/>
      <point x="184" y="-6" type="curve" smooth="yes"/>
      <point x="225" y="-6"/>
      <point x="261" y="26"/>
      <point x="268" y="97" type="curve"/>
      <point x="292" y="97" type="line"/>
      <point x="292" y="0" type="line"/>
      <point x="390" y="0" type="line"/>
      <point x="390" y="534" type="line"/>
      <point x="273" y="534" type="line"/>
      <point x="273" y="161" type="line" smooth="yes"/>
      <point x="273" y="113"/>
      <point x="256" y="92"/>
      <point x="219" y="92" type="curve" smooth="yes"/>
      <point x="182" y="92"/>
      <point x="165" y="113"/>
      <point x="165" y="161" type="curve" smooth="yes"/>
      <point x="165" y="534" type="line"/>
      <point x="48" y="534" type="line"/>
    </contour>
  </outline>
</glyph>
<glyph name="paragraph" format="1">
  <advance width="410"/>
  <unicode hex="00B6"/>
  <outline>
    <contour>
      <point x="254" y="0" type="line"/>
      <point x="357" y="0" type="line"/>
      <point x="357" y="690" type="line"/>
      <point x="186" y="690" type="line" smooth="yes"/>
      <point x="76" y="690"/>
      <point x="16" y="628"/>
      <point x="16" y="506" type="curve" smooth="yes"/>
      <point x="16" y="400"/>
      <point x="67" y="341"/>
      <point x="165" y="341" type="curve" smooth="yes"/>
      <point x="198" y="341" type="line"/>
      <point x="198" y="600" type="line"/>
      <point x="254" y="600" type="line"/>
    </contour>
  </outline>
</glyph>
<glyph name="eth" format="1">
  <advance width="422"/>
  <unicode hex="00F0"/>
  <note>
eth
</note>
  <outline>
    <contour>
      <point x="210" y="-10" type="curve" smooth="yes"/>
      <point x="337" y="-10"/>
      <point x="395" y="74"/>
      <point x="395" y="272" type="curve" smooth="yes"/>
      <point x="395" y="454"/>
      <point x="337" y="581"/>
      <point x="253" y="690" type="curve"/>
      <point x="130" y="690" type="line"/>
      <point x="219" y="582"/>
      <point x="276" y="474"/>
      <point x="281" y="413" type="curve"/>
      <point x="257" y="413" type="line"/>
      <point x="246" y="468"/>
      <point x="211" y="501"/>
      <point x="162" y="501" type="curve" smooth="yes"/>
      <point x="72" y="501"/>
      <point x="25" y="407"/>
      <point x="25" y="245" type="curve" smooth="yes"/>
      <point x="25" y="74"/>
      <point x="83" y="-10"/>
    </contour>
    <contour>
      <point x="210" y="92" type="curve" smooth="yes"/>
      <point x="168" y="92"/>
      <point x="150" y="115"/>
      <point x="150" y="166" type="curve" smooth="yes"/>
      <point x="150" y="326" type="line" smooth="yes"/>
      <point x="150" y="377"/>
      <point x="168" y="401"/>
      <point x="210" y="401" type="curve" smooth="yes"/>
      <point x="251" y="401"/>
      <point x="270" y="377"/>
      <point x="270" y="326" type="curve" smooth="yes"/>
      <point x="270" y="166" type="line" smooth="yes"/>
      <point x="270" y="115"/>
      <point x="251" y="92"/>
    </contour>
    <contour>
      <point x="127" y="525" type="line"/>
      <point x="366" y="599" type="line"/>
      <point x="366" y="667" type="line"/>
      <point x="127" y="593" type="line"/>
    </contour>
  </outline>
</glyph>
<glyph name="divide" format="1">
  <advance width="384"/>
  <unicode hex="00F7"/>
  <outline>
    <contour>
      <point x="140" y="418" type="line"/>
      <point x="243" y="418" type="line"/>
      <point x="243" y="514" type="line"/>
      <point x="140" y="514" type="line"/>
    </contour>
    <contour>
      <point x="140" y="160" type="line"/>
      <point x="243" y="160" type="line"/>
      <point x="243" y="256" type="line"/>
      <point x="140" y="256" type="line"/>
    </contour>
    <contour>
      <point x="22" y="290" type="line"/>
      <point x="361" y="290" type="line"/>
      <point x="361" y="384" type="line"/>
      <point x="22" y="384" type="line"/>
    </contour>
  </outline>
</glyph>
<glyph name="ydieresis" format="1">
  <advance width="392"/>
  <unicode hex="00FF"/>
  <note>
ydieresis
</note>
  <outline>
    <component base="y"/>
    <component base="dieresiscomb" xOffset="-1"/>
    <contour>
      <point x="199" y="534" type="move" name="top"/>
    </contour>
  </outline>
</glyph>
<glyph name="Aogonek" format="1">
  <advance width="438"/>
  <unicode hex="0104"/>
  <outline>
    <contour>
      <point x="19" y="0" type="line"/>
      <point x="138" y="0" type="line"/>
      <point x="207" y="577" type="line"/>
      <point x="231" y="577" type="line"/>
      <point x="300" y="0" type="line"/>
      <point x="424" y="0" type="line"/>
      <point x="331" y="690" type="line"/>
      <point x="112" y="690" type="line"/>
    </contour>
    <contour>
      <point x="92" y="158" type="line"/>
      <point x="345" y="158" type="line"/>
      <point x="344" y="250" type="line"/>
      <point x="93" y="250" type="line"/>
    </contour>
    <contour>
      <point x="58" y="592" type="line"/>
      <point x="183" y="592" type="line"/>
      <point x="183" y="690" type="line"/>
      <point x="58" y="690" type="line"/>
    </contour>
    <contour>
      <point x="362" y="-136" type="curve" smooth="yes"/>
      <point x="429" y="-136" type="line"/>
      <point x="429" y="-65" type="line"/>
      <point x="393" y="-65" type="line" smooth="yes"/>
      <point x="376" y="-65"/>
      <point x="367" y="-58"/>
      <point x="367" y="-45" type="curve" smooth="yes"/>
      <point x="367" y="-29"/>
      <point x="384" y="-15"/>
      <point x="424" y="0" type="curve"/>
      <point x="354" y="20" type="line"/>
      <point x="354" y="-17" type="line"/>
      <point x="305" y="-24"/>
      <point x="281" y="-44"/>
      <point x="281" y="-77" type="curve" smooth="yes"/>
      <point x="281" y="-115"/>
      <point x="309" y="-136"/>
    </contour>
    <contour>
      <point x="424" y="0" type="move" name="ogonek"/>
    </contour>
    <contour>
      <point x="217" y="690" type="move" name="top"/>
    </contour>
  </outline>
</glyph>
<glyph name="Eogonek" format="1">
  <advance width="427"/>
  <unicode hex="0118"/>
  <outline>
    <component base="E"/>
    <component base="ogonekcomb" xOffset="197"/>
    <contour>
      <point x="397" y="0" type="move" name="ogonek"/>
    </contour>
    <contour>
      <point x="213" y="690" type="move" name="top"/>
    </contour>
  </outline>
</glyph>
<glyph name="OE" format="1">
  <advance width="671"/>
  <unicode hex="0152"/>
  <note>
OE
</note>
  <outline>
    <contour>
      <point x="229" y="0" type="curve" smooth="yes"/>
      <point x="356" y="0" type="line"/>
      <point x="356" y="98" type="line"/>
      <point x="237" y="98" type="line" smooth="yes"/>
      <point x="184" y="98"/>
      <point x="161" y="127"/>
      <point x="161" y="195" type="curve" smooth="yes"/>
      <point x="161" y="495" type="line" smooth="yes"/>
      <point x="161" y="563"/>
      <point x="184" y="592"/>
      <point x="237" y="592" type="curve" smooth="yes"/>
      <point x="356" y="592" type="line"/>
      <point x="356" y="690" type="line"/>
      <point x="229" y="690" type="line" smooth="yes"/>
      <point x="83" y="690"/>
      <point x="32" y="614"/>
      <point x="32" y="345" type="curve" smooth="yes"/>
      <point x="32" y="78"/>
      <point x="83" y="0"/>
    </contour>
    <contour>
      <point x="534" y="483" type="line"/>
      <point x="637" y="483" type="line"/>
      <point x="637" y="690" type="line"/>
      <point x="298" y="690" type="line"/>
      <point x="298" y="0" type="line"/>
      <point x="641" y="0" type="line"/>
      <point x="641" y="211" type="line"/>
      <point x="538" y="211" type="line"/>
      <point x="538" y="98" type="line"/>
      <point x="419" y="98" type="line"/>
      <point x="419" y="307" type="line"/>
      <point x="558" y="307" type="line"/>
      <point x="558" y="397" type="line"/>
      <point x="419" y="397" type="line"/>
      <point x="419" y="592" type="line"/>
      <point x="534" y="592" type="line"/>
    </contour>
    <contour>
      <point x="641" y="0" type="move" name="ogonek"/>
    </contour>
    <contour>
      <point x="460" y="690" type="move" name="top"/>
    </contour>
  </outline>
</glyph>
<glyph name="breve" format="1">
  <advance width="400"/>
  <unicode hex="02D8"/>
  <outline>
    <contour>
      <point x="200" y="570" type="curve" smooth="yes"/>
      <point x="277" y="570"/>
      <point x="318" y="609"/>
      <point x="330" y="694" type="curve"/>
      <point x="237" y="694" type="line"/>
      <point x="237" y="692" type="line"/>
      <point x="237" y="666"/>
      <point x="224" y="652"/>
      <point x="200" y="652" type="curve" smooth="yes"/>
      <point x="176" y="652"/>
      <point x="163" y="666"/>
      <point x="163" y="692" type="curve"/>
      <point x="163" y="694" type="line"/>
      <point x="70" y="694" type="line"/>
      <point x="82" y="609"/>
      <point x="123" y="570"/>
    </contour>
    <contour>
      <point x="200" y="534" type="move" name="_top"/>
    </contour>
  </outline>
</glyph>
<glyph name="ogonekcomb" format="1">
  <advance width="0"/>
  <unicode hex="0328"/>
  <outline>
    <contour>
      <point x="139" y="-136" type="curve" smooth="yes"/>
      <point x="205" y="-136" type="line"/>
      <point x="205" y="-65" type="line"/>
      <point x="169" y="-65" type="line" smooth="yes"/>
      <point x="152" y="-65"/>
      <point x="143" y="-58"/>
      <point x="143" y="-45" type="curve" smooth="yes"/>
      <point x="143" y="-29"/>
      <point x="160" y="-15"/>
      <point x="200" y="0" type="curve"/>
      <point x="129" y="20" type="line"/>
      <point x="129" y="-17" type="line"/>
      <point x="81" y="-24"/>
      <point x="57" y="-44"/>
      <point x="57" y="-77" type="curve" smooth="yes"/>
      <point x="57" y="-115"/>
      <point x="85" y="-136"/>
    </contour>
    <contour>
      <point x="200" y="0" type="move" name="_ogonek"/>
    </contour>
  </outline>
</glyph>
<glyph name="pi" format="1">
  <advance width="475"/>
  <unicode hex="03C0"/>
  <outline>
    <contour>
      <point x="363" y="0" type="curve" smooth="yes"/>
      <point x="447" y="0" type="line"/>
      <point x="447" y="94" type="line"/>
      <point x="400" y="94" type="line"/>
      <point x="400" y="479" type="line"/>
      <point x="283" y="479" type="line"/>
      <point x="283" y="80" type="line" smooth="yes"/>
      <point x="283" y="28"/>
      <point x="311" y="0"/>
    </contour>
    <contour>
      <point x="65" y="0" type="line"/>
      <point x="183" y="0" type="line"/>
      <point x="183" y="479" type="line"/>
      <point x="65" y="479" type="line"/>
    </contour>
    <contour>
      <point x="18" y="440" type="line"/>
      <point x="447" y="440" type="line"/>
      <point x="447" y="534" type="line"/>
      <point x="18" y="534" type="line"/>
    </contour>
  </outline>
</glyph>
<glyph name="Germandbls" format="1">
  <advance width="470"/>
  <unicode hex="1E9E"/>
  <outline>
    <contour>
      <point x="63" y="0" type="line"/>
      <point x="184" y="0" type="line"/>
      <point x="184" y="592" type="line"/>
      <point x="309" y="592" type="line"/>
      <point x="237" y="406" type="line"/>
      <point x="237" y="315" type="line"/>
      <point x="259" y="315" type="line" smooth="yes"/>
      <point x="299" y="315"/>
      <point x="317" y="296"/>
      <point x="317" y="254" type="curve" smooth="yes"/>
      <point x="317" y="159" type="line" smooth="yes"/>
      <point x="317" y="117"/>
      <point x="299" y="98"/>
      <point x="259" y="98" type="curve" smooth="yes"/>
      <point x="220" y="98" type="line"/>
      <point x="220" y="0" type="line"/>
      <point x="268" y="0" type="line" smooth="yes"/>
      <point x="387" y="0"/>
      <point x="442" y="61"/>
      <point x="442" y="201" type="curve" smooth="yes"/>
      <point x="442" y="333"/>
      <point x="393" y="403"/>
      <point x="300" y="403" type="curve"/>
      <point x="273" y="403" type="line"/>
      <point x="335" y="355" type="line"/>
      <point x="430" y="592" type="line"/>
      <point x="430" y="690" type="line"/>
      <point x="22" y="690" type="line"/>
      <point x="22" y="592" type="line"/>
      <point x="63" y="592" type="line"/>
    </contour>
  </outline>
</glyph>
<glyph name="daggerdbl" format="1">
  <advance width="408"/>
  <unicode hex="2021"/>
  <outline>
    <contour>
      <point x="37" y="441" type="line"/>
      <point x="370" y="441" type="line"/>
      <point x="370" y="529" type="line"/>
      <point x="310" y="529" type="line"/>
      <point x="236" y="487" type="line"/>
      <point x="230" y="491" type="line"/>
      <point x="255" y="583" type="line"/>
      <point x="255" y="690" type="line"/>
      <point x="152" y="690" type="line"/>
      <point x="152" y="583" type="line"/>
      <point x="178" y="491" type="line"/>
      <point x="171" y="487" type="line"/>
      <point x="98" y="529" type="line"/>
      <point x="37" y="529" type="line"/>
    </contour>
    <contour>
      <point x="152" y="0" type="line"/>
      <point x="255" y="0" type="line"/>
      <point x="255" y="107" type="line"/>
      <point x="230" y="199" type="line"/>
      <point x="236" y="203" type="line"/>
      <point x="310" y="161" type="line"/>
      <point x="370" y="161" type="line"/>
      <point x="370" y="249" type="line"/>
      <point x="37" y="249" type="line"/>
      <point x="37" y="161" type="line"/>
      <point x="98" y="161" type="line"/>
      <point x="171" y="203" type="line"/>
      <point x="178" y="199" type="line"/>
      <point x="152" y="107" type="line"/>
    </contour>
    <contour>
      <point x="155" y="297" type="line"/>
      <point x="252" y="297" type="line"/>
      <point x="252" y="393" type="line"/>
      <point x="155" y="393" type="line"/>
    </contour>
  </outline>
</glyph>
<glyph name="guilsinglleft" format="1">
  <advance width="236"/>
  <unicode hex="2039"/>
  <outline>
    <contour>
      <point x="108" y="82" type="line"/>
      <point x="208" y="82" type="line"/>
      <point x="129" y="274" type="line"/>
      <point x="129" y="294" type="line"/>
      <point x="208" y="486" type="line"/>
      <point x="108" y="486" type="line"/>
      <point x="28" y="308" type="line"/>
      <point x="28" y="260" type="line"/>
    </contour>
  </outline>
</glyph>
<glyph name="literSign" format="1">
  <advance width="435"/>
  <unicode hex="2113"/>
  <outline>
    <contour>
      <point x="240" y="-10" type="curve" smooth="yes"/>
      <point x="340" y="-10"/>
      <point x="391" y="43"/>
      <point x="405" y="172" type="curve"/>
      <point x="288" y="172" type="line"/>
      <point x="288" y="144" type="line" smooth="yes"/>
      <point x="288" y="115"/>
      <point x="275" y="92"/>
      <point x="240" y="92" type="curve" smooth="yes"/>
      <point x="204" y="92"/>
      <point x="189" y="117"/>
      <point x="189" y="179" type="curve" smooth="yes"/>
      <point x="189" y="511" type="line" smooth="yes"/>
      <point x="189" y="573"/>
      <point x="204" y="598"/>
      <point x="241" y="598" type="curve" smooth="yes"/>
      <point x="275" y="598"/>
      <point x="291" y="577"/>
      <point x="291" y="536" type="curve" smooth="yes"/>
      <point x="291" y="445" type="line" smooth="yes"/>
      <point x="291" y="404"/>
      <point x="277" y="382"/>
      <point x="238" y="362" type="curve" smooth="yes"/>
      <point x="25" y="254" type="line"/>
      <point x="25" y="153" type="line"/>
      <point x="290" y="288" type="line" smooth="yes"/>
      <point x="381" y="335"/>
      <point x="412" y="384"/>
      <point x="412" y="490" type="curve" smooth="yes"/>
      <point x="412" y="633"/>
      <point x="357" y="700"/>
      <point x="241" y="700" type="curve" smooth="yes"/>
      <point x="111" y="700"/>
      <point x="64" y="616"/>
      <point x="64" y="345" type="curve" smooth="yes"/>
      <point x="64" y="84"/>
      <point x="116" y="-10"/>
    </contour>
  </outline>
</glyph>
<glyph name="estimated" format="1">
  <advance width="860"/>
  <unicode hex="212E"/>
  <outline>
    <contour>
      <point x="432" y="679" type="curve" smooth="yes"/>
      <point x="517" y="679"/>
      <point x="599" y="646"/>
      <point x="662" y="587" type="curve" smooth="yes"/>
      <point x="675" y="575"/>
      <point x="682" y="557"/>
      <point x="682" y="539" type="curve" smooth="yes"/>
      <point x="682" y="365" type="line" smooth="yes"/>
      <point x="682" y="359"/>
      <point x="677" y="355"/>
      <point x="672" y="355" type="curve" smooth="yes"/>
      <point x="192" y="355" type="line" smooth="yes"/>
      <point x="187" y="355"/>
      <point x="182" y="359"/>
      <point x="182" y="365" type="curve" smooth="yes"/>
      <point x="182" y="539" type="line" smooth="yes"/>
      <point x="182" y="557"/>
      <point x="189" y="575"/>
      <point x="202" y="587" type="curve" smooth="yes"/>
      <point x="265" y="646"/>
      <point x="347" y="679"/>
    </contour>
    <contour>
      <point x="432" y="700" type="curve" smooth="yes"/>
      <point x="214" y="700"/>
      <point x="37" y="542"/>
      <point x="37" y="345" type="curve" smooth="yes"/>
      <point x="37" y="149"/>
      <point x="214" y="-10"/>
      <point x="432" y="-10" type="curve" smooth="yes"/>
      <point x="554" y="-10"/>
      <point x="669" y="40"/>
      <point x="744" y="127" type="curve"/>
      <point x="684" y="127" type="line"/>
      <point x="621" y="54"/>
      <point x="529" y="11"/>
      <point x="432" y="11" type="curve" smooth="yes"/>
      <point x="347" y="11"/>
      <point x="265" y="44"/>
      <point x="202" y="103" type="curve" smooth="yes"/>
      <point x="189" y="115"/>
      <point x="182" y="133"/>
      <point x="182" y="151" type="curve" smooth="yes"/>
      <point x="182" y="325" type="line" smooth="yes"/>
      <point x="182" y="330"/>
      <point x="187" y="335"/>
      <point x="192" y="335" type="curve" smooth="yes"/>
      <point x="827" y="335" type="line"/>
      <point x="827" y="345" type="line" smooth="yes"/>
      <point x="827" y="542"/>
      <point x="650" y="700"/>
    </contour>
  </outline>
</glyph>
<glyph name="summation" format="1">
  <advance width="399"/>
  <unicode hex="2211"/>
  <outline>
    <contour>
      <point x="23" y="0" type="line"/>
      <point x="376" y="0" type="line"/>
      <point x="376" y="109" type="line"/>
      <point x="152" y="109" type="line"/>
      <point x="281" y="345" type="line"/>
      <point x="153" y="581" type="line"/>
      <point x="375" y="581" type="line"/>
      <point x="375" y="690" type="line"/>
      <point x="24" y="690" type="line"/>
      <point x="24" y="592" type="line"/>
      <point x="153" y="345" type="line"/>
      <point x="23" y="98" type="line"/>
    </contour>
  </outline>
</glyph>
<glyph name="radical" format="1">
  <advance width="410"/>
  <unicode hex="221A"/>
  <outline>
    <contour>
      <point x="81" y="0" type="line"/>
      <point x="291" y="0" type="line"/>
      <point x="396" y="690" type="line"/>
      <point x="285" y="690" type="line"/>
      <point x="198" y="109" type="line"/>
      <point x="175" y="109" type="line"/>
      <point x="137" y="404" type="line"/>
      <point x="21" y="404" type="line"/>
    </contour>
  </outline>
</glyph>
<glyph name="infinity" format="1">
  <advance width="555"/>
  <unicode hex="221E"/>
  <outline>
    <contour>
      <point x="146" y="202" type="curve" smooth="yes"/>
      <point x="204" y="202"/>
      <point x="246" y="236"/>
      <point x="265" y="287" type="curve"/>
      <point x="289" y="287" type="line"/>
      <point x="309" y="236"/>
      <point x="351" y="202"/>
      <point x="408" y="202" type="curve" smooth="yes"/>
      <point x="478" y="202"/>
      <point x="528" y="253"/>
      <point x="528" y="337" type="curve" smooth="yes"/>
      <point x="528" y="421"/>
      <point x="478" y="472"/>
      <point x="408" y="472" type="curve" smooth="yes"/>
      <point x="351" y="472"/>
      <point x="309" y="438"/>
      <point x="289" y="387" type="curve"/>
      <point x="265" y="387" type="line"/>
      <point x="245" y="438"/>
      <point x="204" y="472"/>
      <point x="146" y="472" type="curve" smooth="yes"/>
      <point x="76" y="472"/>
      <point x="27" y="421"/>
      <point x="27" y="337" type="curve" smooth="yes"/>
      <point x="27" y="253"/>
      <point x="76" y="202"/>
    </contour>
    <contour>
      <point x="159" y="281" type="curve" smooth="yes"/>
      <point x="132" y="281"/>
      <point x="117" y="298"/>
      <point x="117" y="329" type="curve" smooth="yes"/>
      <point x="117" y="345" type="line" smooth="yes"/>
      <point x="117" y="376"/>
      <point x="132" y="393"/>
      <point x="159" y="393" type="curve" smooth="yes"/>
      <point x="186" y="393"/>
      <point x="212" y="375"/>
      <point x="239" y="337" type="curve"/>
      <point x="212" y="299"/>
      <point x="186" y="281"/>
    </contour>
    <contour>
      <point x="395" y="281" type="curve" smooth="yes"/>
      <point x="368" y="281"/>
      <point x="342" y="299"/>
      <point x="315" y="337" type="curve"/>
      <point x="342" y="375"/>
      <point x="368" y="393"/>
      <point x="395" y="393" type="curve" smooth="yes"/>
      <point x="422" y="393"/>
      <point x="438" y="376"/>
      <point x="438" y="345" type="curve" smooth="yes"/>
      <point x="438" y="329" type="line" smooth="yes"/>
      <point x="438" y="298"/>
      <point x="422" y="281"/>
    </contour>
  </outline>
</glyph>
<glyph name="integral" format="1">
  <advance width="261"/>
  <unicode hex="222B"/>
  <outline>
    <contour>
      <point x="19" y="0" type="line"/>
      <point x="141" y="0" type="line" smooth="yes"/>
      <point x="170" y="0"/>
      <point x="185" y="15"/>
      <point x="185" y="44" type="curve" smooth="yes"/>
      <point x="185" y="592" type="line"/>
      <point x="241" y="592" type="line"/>
      <point x="241" y="690" type="line"/>
      <point x="119" y="690" type="line" smooth="yes"/>
      <point x="90" y="690"/>
      <point x="75" y="675"/>
      <point x="75" y="646" type="curve" smooth="yes"/>
      <point x="75" y="98" type="line"/>
      <point x="19" y="98" type="line"/>
    </contour>
  </outline>
</glyph>
<glyph name="lessequal" format="1">
  <advance width="384"/>
  <unicode hex="2264"/>
  <outline>
    <contour>
      <point x="360" y="170" type="line"/>
      <point x="360" y="270" type="line"/>
      <point x="126" y="338" type="line"/>
      <point x="126" y="362" type="line"/>
      <point x="360" y="431" type="line"/>
      <point x="360" y="531" type="line"/>
      <point x="21" y="413" type="line"/>
      <point x="21" y="288" type="line"/>
    </contour>
    <contour>
      <point x="21" y="35" type="line"/>
      <point x="360" y="35" type="line"/>
      <point x="360" y="129" type="line"/>
      <point x="21" y="129" type="line"/>
    </contour>
  </outline>
</glyph>
<glyph name="personalComputer" format="1">
  <advance width="656"/>
  <unicode hex="1F4BB"/>
  <outline>
    <contour>
      <point x="424" y="0" type="line"/>
      <point x="534" y="0" type="line"/>
      <point x="654" y="690" type="line"/>
      <point x="544" y="690" type="line"/>
    </contour>
    <contour>
      <point x="39" y="0" type="line"/>
      <point x="166" y="0" type="line"/>
      <point x="166" y="125" type="line"/>
      <point x="39" y="125" type="line"/>
    </contour>
    <contour>
      <point x="39" y="409" type="line"/>
      <point x="166" y="409" type="line"/>
      <point x="166" y="534" type="line"/>
      <point x="39" y="534" type="line"/>
    </contour>
    <contour>
      <point x="217" y="0" type="line"/>
      <point x="327" y="0" type="line"/>
      <point x="447" y="690" type="line"/>
      <point x="337" y="690" type="line"/>
    </contour>
  </outline>
</glyph>
<glyph name="AE.ss03" format="1">
  <advance width="627"/>
  <note>
AE
</note>
  <outline>
    <contour>
      <point x="2" y="0" type="line"/>
      <point x="123" y="0" type="line"/>
      <point x="232" y="577" type="line"/>
      <point x="256" y="577" type="line"/>
      <point x="355" y="690" type="line"/>
      <point x="142" y="690" type="line"/>
    </contour>
    <contour>
      <point x="80" y="158" type="line"/>
      <point x="333" y="158" type="line"/>
      <point x="333" y="250" type="line"/>
      <point x="81" y="250" type="line"/>
    </contour>
    <contour>
      <point x="492" y="483" type="line"/>
      <point x="595" y="483" type="line"/>
      <point x="595" y="690" type="line"/>
      <point x="256" y="690" type="line"/>
      <point x="256" y="0" type="line"/>
      <point x="599" y="0" type="line"/>
      <point x="599" y="211" type="line"/>
      <point x="496" y="211" type="line"/>
      <point x="496" y="98" type="line"/>
      <point x="377" y="98" type="line"/>
      <point x="377" y="307" type="line"/>
      <point x="516" y="307" type="line"/>
      <point x="516" y="397" type="line"/>
      <point x="377" y="397" type="line"/>
      <point x="377" y="592" type="line"/>
      <point x="492" y="592" type="line"/>
    </contour>
    <contour>
      <point x="599" y="0" type="move" name="ogonek"/>
    </contour>
    <contour>
      <point x="418" y="690" type="move" name="top"/>
    </contour>
  </outline>
</glyph>
<glyph name="Aogonek.ss03" format="1">
  <advance width="434"/>
  <outline>
    <contour>
      <point x="15" y="0" type="line"/>
      <point x="134" y="0" type="line"/>
      <point x="203" y="577" type="line"/>
      <point x="226" y="577" type="line"/>
      <point x="295" y="0" type="line"/>
      <point x="419" y="0" type="line"/>
      <point x="326" y="690" type="line"/>
      <point x="108" y="690" type="line"/>
    </contour>
    <contour>
      <point x="86" y="158" type="line"/>
      <point x="341" y="158" type="line"/>
      <point x="341" y="250" type="line"/>
      <point x="87" y="250" type="line"/>
    </contour>
    <contour>
      <point x="357" y="-136" type="curve" smooth="yes"/>
      <point x="424" y="-136" type="line"/>
      <point x="424" y="-65" type="line"/>
      <point x="388" y="-65" type="line" smooth="yes"/>
      <point x="371" y="-65"/>
      <point x="362" y="-58"/>
      <point x="362" y="-45" type="curve" smooth="yes"/>
      <point x="362" y="-29"/>
      <point x="379" y="-15"/>
      <point x="419" y="0" type="curve"/>
      <point x="349" y="20" type="line"/>
      <point x="349" y="-17" type="line"/>
      <point x="300" y="-24"/>
      <point x="276" y="-44"/>
      <point x="276" y="-77" type="curve" smooth="yes"/>
      <point x="276" y="-115"/>
      <point x="304" y="-136"/>
    </contour>
    <contour>
      <point x="419" y="0" type="move" name="ogonek"/>
    </contour>
    <contour>
      <point x="215" y="690" type="move" name="top"/>
    </contour>
  </outline>
</glyph>
<glyph name="D.ss03" format="1">
  <advance width="471"/>
  <outline>
    <contour>
      <point x="49" y="0" type="line"/>
      <point x="242" y="0" type="line" smooth="yes"/>
      <point x="388" y="0"/>
      <point x="439" y="76"/>
      <point x="439" y="345" type="curve" smooth="yes"/>
      <point x="439" y="612"/>
      <point x="387" y="690"/>
      <point x="242" y="690" type="curve" smooth="yes"/>
      <point x="49" y="690" type="line"/>
    </contour>
    <contour>
      <point x="233" y="98" type="curve" smooth="yes"/>
      <point x="170" y="98" type="line"/>
      <point x="170" y="592" type="line"/>
      <point x="233" y="592" type="line" smooth="yes"/>
      <point x="286" y="592"/>
      <point x="310" y="563"/>
      <point x="310" y="495" type="curve" smooth="yes"/>
      <point x="310" y="195" type="line" smooth="yes"/>
      <point x="310" y="127"/>
      <point x="286" y="98"/>
    </contour>
  </outline>
</glyph>
<glyph name="F.ss03" format="1">
  <advance width="408"/>
  <outline>
    <contour>
      <point x="49" y="0" type="line"/>
      <point x="170" y="0" type="line"/>
      <point x="170" y="307" type="line"/>
      <point x="309" y="307" type="line"/>
      <point x="309" y="397" type="line"/>
      <point x="170" y="397" type="line"/>
      <point x="170" y="592" type="line"/>
      <point x="285" y="592" type="line"/>
      <point x="285" y="483" type="line"/>
      <point x="388" y="483" type="line"/>
      <point x="388" y="690" type="line"/>
      <point x="49" y="690" type="line"/>
    </contour>
  </outline>
</glyph>
<glyph name="Lslash.ss03" format="1">
  <advance width="418"/>
  <note>
Lslash
</note>
  <outline>
    <contour>
      <point x="64" y="0" type="line"/>
      <point x="397" y="0" type="line"/>
      <point x="397" y="211" type="line"/>
      <point x="294" y="211" type="line"/>
      <point x="294" y="98" type="line"/>
      <point x="185" y="98" type="line"/>
      <point x="185" y="690" type="line"/>
      <point x="64" y="690" type="line"/>
    </contour>
    <contour>
      <point x="170" y="690" type="line"/>
      <point x="170" y="592" type="line"/>
      <point x="226" y="592" type="line"/>
      <point x="226" y="690" type="line"/>
    </contour>
    <contour>
      <point x="24" y="205" type="line"/>
      <point x="284" y="345" type="line"/>
      <point x="284" y="443" type="line"/>
      <point x="24" y="303" type="line"/>
    </contour>
  </outline>
</glyph>
<glyph name="f_f_j" format="1">
  <advance width="751"/>
  <outline>
    <contour>
      <point x="69" y="610" type="curve" smooth="yes"/>
      <point x="69" y="0" type="line"/>
      <point x="186" y="0" type="line"/>
      <point x="186" y="596" type="line"/>
      <point x="259" y="596" type="line"/>
      <point x="259" y="690" type="line"/>
      <point x="149" y="690" type="line" smooth="yes"/>
      <point x="97" y="690"/>
      <point x="69" y="662"/>
    </contour>
    <contour>
      <point x="27" y="0" type="line"/>
      <point x="246" y="0" type="line"/>
      <point x="246" y="94" type="line"/>
      <point x="27" y="94" type="line"/>
    </contour>
    <contour>
      <point x="22" y="440" type="line"/>
      <point x="259" y="440" type="line"/>
      <point x="259" y="534" type="line"/>
      <point x="22" y="534" type="line"/>
    </contour>
    <contour>
      <point x="341" y="610" type="curve" smooth="yes"/>
      <point x="341" y="0" type="line"/>
      <point x="458" y="0" type="line"/>
      <point x="458" y="596" type="line"/>
      <point x="531" y="596" type="line"/>
      <point x="531" y="690" type="line"/>
      <point x="421" y="690" type="line" smooth="yes"/>
      <point x="369" y="690"/>
      <point x="341" y="662"/>
    </contour>
    <contour>
      <point x="299" y="0" type="line"/>
      <point x="518" y="0" type="line"/>
      <point x="518" y="94" type="line"/>
      <point x="299" y="94" type="line"/>
    </contour>
    <contour>
      <point x="294" y="440" type="line"/>
      <point x="531" y="440" type="line"/>
      <point x="531" y="534" type="line"/>
      <point x="294" y="534" type="line"/>
    </contour>
    <contour>
      <point x="550" y="-132" type="line"/>
      <point x="629" y="-132" type="line" smooth="yes"/>
      <point x="681" y="-132"/>
      <point x="709" y="-104"/>
      <point x="709" y="-52" type="curve" smooth="yes"/>
      <point x="709" y="534" type="line"/>
      <point x="554" y="534" type="line"/>
      <point x="554" y="440" type="line"/>
      <point x="591" y="440" type="line"/>
      <point x="591" y="-38" type="line"/>
      <point x="550" y="-38" type="line"/>
    </contour>
    <contour>
      <point x="586" y="578" type="line"/>
      <point x="710" y="578" type="line"/>
      <point x="710" y="690" type="line"/>
      <point x="586" y="690" type="line"/>
    </contour>
    <contour>
      <point x="500" y="534" type="line"/>
      <point x="500" y="440" type="line"/>
      <point x="583" y="440" type="line"/>
      <point x="583" y="534" type="line"/>
    </contour>
    <contour>
      <point x="207" y="440" type="line"/>
      <point x="353" y="440" type="line"/>
      <point x="353" y="534" type="line"/>
      <point x="207" y="534" type="line"/>
    </contour>
  </outline>
</glyph>
<glyph name="f_k" format="1">
  <advance width="696"/>
  <outline>
    <contour>
      <point x="69" y="610" type="curve" smooth="yes"/>
      <point x="69" y="0" type="line"/>
      <point x="186" y="0" type="line"/>
      <point x="186" y="596" type="line"/>
      <point x="259" y="596" type="line"/>
      <point x="259" y="690" type="line"/>
      <point x="149" y="690" type="line" smooth="yes"/>
      <point x="97" y="690"/>
      <point x="69" y="662"/>
    </contour>
    <contour>
      <point x="27" y="0" type="line"/>
      <point x="246" y="0" type="line"/>
      <point x="246" y="94" type="line"/>
      <point x="27" y="94" type="line"/>
    </contour>
    <contour>
      <point x="22" y="440" type="line"/>
      <point x="259" y="440" type="line"/>
      <point x="259" y="534" type="line"/>
      <point x="22" y="534" type="line"/>
    </contour>
    <contour>
      <point x="315" y="0" type="line"/>
      <point x="432" y="0" type="line"/>
      <point x="432" y="231" type="line"/>
      <point x="471" y="231" type="line"/>
      <point x="562" y="0" type="line"/>
      <point x="687" y="0" type="line"/>
      <point x="687" y="94" type="line"/>
      <point x="652" y="94" type="line"/>
      <point x="562" y="309" type="line"/>
      <point x="558" y="256" type="line"/>
      <point x="685" y="534" type="line"/>
      <point x="561" y="534" type="line"/>
      <point x="471" y="321" type="line"/>
      <point x="432" y="321" type="line"/>
      <point x="432" y="690" type="line"/>
      <point x="279" y="690" type="line"/>
      <point x="279" y="596" type="line"/>
      <point x="315" y="596" type="line"/>
    </contour>
    <contour>
      <point x="230" y="690" type="line"/>
      <point x="230" y="596" type="line"/>
      <point x="304" y="596" type="line"/>
      <point x="304" y="690" type="line"/>
    </contour>
  </outline>
</glyph>
<glyph name="f_t" format="1">
  <advance width="537"/>
  <outline>
    <contour>
      <point x="69" y="610" type="curve" smooth="yes"/>
      <point x="69" y="0" type="line"/>
      <point x="186" y="0" type="line"/>
      <point x="186" y="596" type="line"/>
      <point x="259" y="596" type="line"/>
      <point x="259" y="690" type="line"/>
      <point x="149" y="690" type="line" smooth="yes"/>
      <point x="97" y="690"/>
      <point x="69" y="662"/>
    </contour>
    <contour>
      <point x="27" y="0" type="line"/>
      <point x="246" y="0" type="line"/>
      <point x="246" y="94" type="line"/>
      <point x="27" y="94" type="line"/>
    </contour>
    <contour>
      <point x="22" y="440" type="line"/>
      <point x="259" y="440" type="line"/>
      <point x="259" y="534" type="line"/>
      <point x="22" y="534" type="line"/>
    </contour>
    <contour>
      <point x="414" y="0" type="curve" smooth="yes"/>
      <point x="516" y="0" type="line"/>
      <point x="516" y="94" type="line"/>
      <point x="451" y="94" type="line"/>
      <point x="451" y="634" type="line"/>
      <point x="379" y="634" type="line"/>
      <point x="334" y="534" type="line"/>
      <point x="334" y="80" type="line" smooth="yes"/>
      <point x="334" y="28"/>
      <point x="362" y="0"/>
    </contour>
    <contour>
      <point x="283" y="440" type="line"/>
      <point x="516" y="440" type="line"/>
      <point x="516" y="534" type="line"/>
      <point x="283" y="534" type="line"/>
    </contour>
    <contour>
      <point x="229" y="534" type="line"/>
      <point x="229" y="440" type="line"/>
      <point x="312" y="440" type="line"/>
      <point x="312" y="534" type="line"/>
    </contour>
  </outline>
</glyph>
<glyph name="g.ss02" format="1">
  <advance width="439"/>
  <outline>
    <contour>
      <point x="212" y="-142" type="curve" smooth="yes"/>
      <point x="327" y="-142"/>
      <point x="387" y="-85"/>
      <point x="387" y="25" type="curve" smooth="yes"/>
      <point x="387" y="440" type="line"/>
      <point x="422" y="440" type="line"/>
      <point x="422" y="534" type="line"/>
      <point x="288" y="534" type="line"/>
      <point x="288" y="436" type="line"/>
      <point x="265" y="436" type="line"/>
      <point x="258" y="505"/>
      <point x="220" y="544"/>
      <point x="162" y="544" type="curve" smooth="yes"/>
      <point x="72" y="544"/>
      <point x="25" y="453"/>
      <point x="25" y="291" type="curve" smooth="yes"/>
      <point x="25" y="129"/>
      <point x="72" y="47"/>
      <point x="162" y="47" type="curve" smooth="yes"/>
      <point x="215" y="47"/>
      <point x="247" y="78"/>
      <point x="256" y="136" type="curve"/>
      <point x="279" y="136" type="line"/>
      <point x="273" y="81"/>
      <point x="270" y="52"/>
      <point x="270" y="18" type="curve" smooth="yes"/>
      <point x="269" y="-24"/>
      <point x="249" y="-44"/>
      <point x="208" y="-44" type="curve" smooth="yes"/>
      <point x="175" y="-44"/>
      <point x="155" y="-28"/>
      <point x="155" y="0" type="curve"/>
      <point x="155" y="4" type="line"/>
      <point x="40" y="4" type="line"/>
      <point x="57" y="-99"/>
      <point x="111" y="-142"/>
    </contour>
    <contour>
      <point x="210" y="140" type="curve" smooth="yes"/>
      <point x="168" y="140"/>
      <point x="150" y="164"/>
      <point x="150" y="214" type="curve" smooth="yes"/>
      <point x="150" y="368" type="line" smooth="yes"/>
      <point x="150" y="418"/>
      <point x="168" y="442"/>
      <point x="210" y="442" type="curve" smooth="yes"/>
      <point x="251" y="442"/>
      <point x="269" y="418"/>
      <point x="269" y="368" type="curve" smooth="yes"/>
      <point x="269" y="214" type="line" smooth="yes"/>
      <point x="269" y="164"/>
      <point x="251" y="140"/>
    </contour>
  </outline>
</glyph>
<glyph name="questiondown.case" format="1">
  <advance width="394"/>
  <outline>
    <contour>
      <point x="251" y="437" type="curve" smooth="yes"/>
      <point x="246" y="520" type="line"/>
      <point x="171" y="520" type="line"/>
      <point x="167" y="453" type="line" smooth="yes"/>
      <point x="166" y="425"/>
      <point x="156" y="409"/>
      <point x="128" y="389" type="curve" smooth="yes"/>
      <point x="46" y="335"/>
      <point x="17" y="291"/>
      <point x="17" y="195" type="curve" smooth="yes"/>
      <point x="17" y="169" type="line" smooth="yes"/>
      <point x="17" y="48"/>
      <point x="81" y="-10"/>
      <point x="200" y="-10" type="curve" smooth="yes"/>
      <point x="326" y="-10"/>
      <point x="378" y="57"/>
      <point x="383" y="237" type="curve"/>
      <point x="263" y="237" type="line"/>
      <point x="263" y="165" type="line" smooth="yes"/>
      <point x="263" y="118"/>
      <point x="241" y="96"/>
      <point x="199" y="96" type="curve" smooth="yes"/>
      <point x="160" y="96"/>
      <point x="137" y="114"/>
      <point x="137" y="156" type="curve" smooth="yes"/>
      <point x="137" y="215" type="line" smooth="yes"/>
      <point x="137" y="249"/>
      <point x="151" y="270"/>
      <point x="184" y="292" type="curve" smooth="yes"/>
      <point x="242" y="333"/>
      <point x="257" y="365"/>
    </contour>
    <contour>
      <point x="272" y="690" type="line"/>
      <point x="145" y="690" type="line"/>
      <point x="145" y="565" type="line"/>
      <point x="272" y="565" type="line"/>
    </contour>
  </outline>
</glyph>
<glyph name="tildecomb.case" format="1">
  <advance width="0"/>
  <note>
tilde
</note>
  <outline>
    <component base="tildecomb" yOffset="116" identifier="8AE55C69"/>
    <contour>
      <point x="200" y="650" type="move" name="_top"/>
    </contour>
  </outline>
</glyph>
